<?xml version="1.0" encoding="utf-8"?>
<!-- Generator: Adobe Illustrator 24.0.0, SVG Export Plug-In . SVG Version: 6.00 Build 0)  -->
<svg version="1.1" id="Layer_1" xmlns="http://www.w3.org/2000/svg" xmlns:xlink="http://www.w3.org/1999/xlink" x="0px" y="0px"
	 viewBox="0 0 640 640" style="enable-background:new 0 0 640 640;" xml:space="preserve">
<style type="text/css">
	.st0{fill:#FC02DA;}
	.st1{fill:#FEDBFD;}
	.st2{fill:#F20B12;}
</style>
<g id="_x23_fc02daff">
	<path class="st0" d="M0,0L0,0C0.1,0,0,0.1,0,0L0,0z"/>
	<path class="st0" d="M300.7,4.6c15.8-0.3,32-1.5,47.5,2.1c2,0.4,4,0.7,6,1c1.2,0.5,2.5,1,3.7,1.5c5.5,1.3,10.8,3.3,16,5.7
		c2,1.1,4.1,2,6.2,2.9c0.4,0.4,1.2,1,1.6,1.4c1.6,0.5,3.3,1.1,4.9,1.6c3.6,2.6,7.4,5,11.1,7.4c4.4,2.8,8,6.8,12.3,9.8
		c5.6,5.7,11.8,10.9,16.4,17.5c14.3,1.9,28.8-0.6,42.9,2.1c1.9,0.5,3.8,1.1,5.7,1.8c0.7,0.1,1.5,0.2,2.2,0.2c3,0.7,5.9,1.4,8.9,2.1
		c2.7,1,5.4,2,8.1,3c5.5,1.8,10.7,4.5,15.8,7.2c5.6,4,12,6.6,17.3,10.9c9.2,7,17.2,15.4,24.6,24.2c4,4.2,6.8,9.4,10.4,13.9
		c0.1,0.5,0.3,1.4,0.4,1.9c1.7,2.2,3.1,4.6,4.6,6.9c0.1,0.5,0.2,1.4,0.3,1.9c0.8,1.1,1.6,2.3,2.5,3.4c0.3,1.3,0.5,2.5,0.8,3.8
		c0.8,1.3,1.5,2.6,2.1,4c0.3,0.5,0.9,1.4,1.2,1.8c0.3,1.2,0.7,2.4,1,3.5c1,6.8,4.1,13,4.8,19.8c0.9,3.8,0.7,7.7,0.6,11.5l1.1,0
		c0,0.3,0.1,0.9,0.1,1.2c1.3,4,0.8,8.2,0.9,12.3c0,6.1-0.2,12.2-0.2,18.3c12.2,10.2,23.3,22,31.6,35.6c2.5,4.9,5.9,9.4,7.8,14.5
		l0.4,0.1c1.9,6.2,5.4,11.7,6.8,18c2.6,6.9,2.7,14.4,4.9,21.5c1,6.9,0.3,14,0.5,20.9c-0.1,5.6,0.5,11.3-0.6,16.9
		c-1.2,5.4-2.4,10.8-3.4,16.2c-1,2.5-1.7,5.2-2.4,7.8c-1.6,4.9-3.6,9.7-6.1,14.3c-0.3,0.9-0.5,1.9-0.7,2.8
		c-4,6.5-7.4,13.5-12.3,19.5c-0.1,0.5-0.3,1.5-0.4,2c-2.3,2.3-4.6,4.6-6.5,7.1c-3.3,4.3-7.5,7.9-11.3,11.8c-2.1,2.2-4.4,4.3-7,5.8
		c-0.7,9.5,0,19.1-0.2,28.6c-0.6,1.3-1.2,2.7-1.8,4c-0.2,3.4-0.3,6.7-0.8,10.1c-0.1,0.6-0.2,1.9-0.3,2.5l-1.3,0.2
		c0.4,0.6,1.3,2,1.7,2.6l-1.6,0.2c0.1,0.5,0.4,1.5,0.5,1.9l-1.1,0c-0.1,3.9-1.4,7.7-3.4,11l1.5,0c-1.3,2.8-2.6,5.6-3.9,8.4
		c-0.2,0.4-0.7,1.3-0.9,1.8c-0.8,1.8-1.4,3.6-1.9,5.4c-3,4.9-5.4,10.1-8.1,15.3c-0.4,0-1.1,0.1-1.5,0.1c0,0.6-0.1,1.8-0.2,2.4
		c-2.6,3-4.6,6.4-6.9,9.6c-7,9.3-15.8,17-24.5,24.6c-4.6,3-9,6.1-13.4,9.2c-0.4,0.1-1.3,0.4-1.8,0.5c-3.2,1.8-6.5,3.5-9.8,5.3
		c-1.7,0.8-3.4,1.6-5,2.4c-0.4,0-1.1-0.1-1.4-0.2l0,0.9c-2.2,0.7-4.4,1.5-6.5,2.3c-0.4,0-1.1-0.1-1.4-0.2l0,0.9
		c-1.9,0.5-3.8,1-5.6,1.5c-3.9,1.2-7.9,2.2-11.8,3.1c-3.9,1-8,0.6-12,1.3c-6.6,1.7-13.5,1.8-20.3,1.2c-3.8-0.7-7.6-1-11.4-0.5
		c-3.1,0.8-4.4,4-6.5,6.1c-5.5,5.5-10.8,11.3-17,16c-8.9,8.1-19.7,13.5-30.4,18.9l-0.1,0.4c-1.6,0.4-3.1,0.9-4.7,1.4
		c-0.9,0.4-1.8,0.9-2.6,1.4c-1.9,0.7-3.7,1.3-5.6,1.9l-0.1,0.7c-0.4,0-1-0.1-1.4-0.1c-8.3,2.2-16.7,4.5-25.2,5.8
		c-2.1,0.3-4.3-0.1-6.3-0.5l0.2,0.6c-9.9,0.4-19.7,0-29.6-0.2c-1-0.5-2-1.1-3-1.6c-2.6-0.1-5.3-0.2-7.9-0.7
		c-1.7-0.6-3.4-1.3-5.2-1.8c-2.4-0.5-4.8-1-7.2-1.6c-1-0.4-1.9-0.9-2.9-1.3c-1.7-0.7-3.4-1.3-5.1-1.9c-1.3-0.5-2.5-0.9-3.8-1.3
		c-6.2-2.4-12.1-5.7-17.7-9.4c-14-8.2-26.4-19.3-36.4-32.1c-4.3-0.1-8.6,0-12.9,0c-5.7,0.2-11.4,0-17.1-0.1c-0.9-0.5-1.8-1-2.8-1.5
		c-7.5,2.1-14.4-2.9-21.9-2.6c-0.7-0.5-1.4-1-2.2-1.4c-3.4-0.8-6.7-1.9-10-3.1c-3.6-1.7-7.3-3.4-11-5c-2.6-1.1-5.1-2.3-7.7-3.6
		c-2-1.6-4.1-3.1-6.2-4.6c-0.5-0.1-1.5-0.3-2-0.3c-1.3-1.1-2.6-2.2-3.9-3.2c-12.8-9.5-24.6-20.7-33.2-34.2c-1.1-1.6-2.3-3.1-3.4-4.6
		c-0.1-0.5-0.3-1.4-0.4-1.9c-2.6-3.2-4.8-6.6-6.5-10.4c-1.3-2.6-2.8-5.2-4.2-7.8c-0.4-2.1-1-4.3-1.4-6.4c-0.4-0.4-1.2-1.2-1.7-1.6
		c-0.1-1-0.2-2.1-0.3-3.1c-1.8-3.5-2.4-7.4-3.2-11.1c-1.9-3.7-1.7-7.8-1.9-11.8c-2-4.5-0.9-9.5-1.1-14.2c0.3-7.8-0.3-15.5-0.8-23.2
		c-6.5-5.2-12.7-10.9-18.2-17.1c-3.2-3.8-6.1-7.9-9.3-11.8c-2.6-4.7-6-9-8.1-13.9c-1.9-3.7-3.8-7.4-5.7-11.1
		c-1.5-3.3-2.4-6.7-3.5-10.1c-0.1-0.3-0.1-0.9-0.2-1.3l-0.8-0.1c-0.2-1.8-0.5-3.7-0.9-5.5c-0.2-0.5-0.5-1.6-0.7-2.1
		c-1.8-4.4-2.3-9.1-3.5-13.7c-0.9-13.9-0.5-27.8-0.3-41.7c0.3-2.6,0.9-5.2,1.9-7.7c0-1.1,0-2.2,0.1-3.3c0.6-1.5,1.2-3,1.8-4.5
		c0.6-3.2,0.9-6.7,3-9.4c0.1-1,0.2-1.9,0.3-2.9c0.4-1,0.7-2.1,1.1-3.1c0.6-0.7,1.2-1.4,1.7-2.1c0.1-1.1,0.2-2.2,0.3-3.3
		c3.9-6.9,6.8-14.3,11.8-20.4c4.1-7.7,10.3-13.8,16.4-19.9c3.4-4.7,8-8.3,12.5-11.9c2-13.1-0.6-26.4,2-39.5c0.1-4.1,1.3-8.1,2.7-12
		c0.2-2,0.4-4,0.6-6c0.7-0.7,1.3-1.4,2-2.1c0-0.8-0.1-2.3-0.2-3l1.2-0.1c-0.1-0.4-0.2-1.3-0.3-1.8l1.3,0c0-1.2-0.1-2.5-0.1-3.7
		c1-1.6,2-3.1,3-4.6c0-0.7,0-2.1,0-2.7l0.7-0.1c0.3-0.6,1.1-1.7,1.4-2.3c0-0.3-0.1-0.9-0.1-1.1c2.2-4.2,4.7-8.1,7.3-12
		c2.3-5.6,6.7-9.9,10.3-14.6c6.7-7.9,14.2-15.4,22.6-21.4c1.9-1.8,3.9-3.5,6.2-4.9c3.2-1.8,6.3-3.9,9.2-6.2c0.7-0.1,1.3-0.3,2-0.4
		c2.5-1.3,5.1-2.5,7.8-3.7c2-0.9,3.9-1.9,5.9-2.9c2.8-0.6,5.6-1.6,8.1-3c0.5-0.2,1.6-0.5,2.1-0.6c3.2-1.1,6.5-1.8,9.8-2.5
		c1.2-0.3,2.3-0.7,3.5-1c2.5-0.3,5-0.7,7.5-1.1c12.9-3.2,26.3,0.1,39.3-2.2c5.3-5.5,10-11.7,15.6-16.9c6.9-4.7,12.9-10.7,20.3-14.8
		c6.8-4,13.6-8.3,21.2-10.6C277.7,8.3,289.3,6.3,300.7,4.6 M286.1,19.1c-24.4,6.2-46.3,20.3-63,39c2,0.5,4.1,0.9,6.1,1.4
		c4.3-4.1,8.4-8.4,13.1-12.1c26.8-22.1,63.5-31.5,97.6-25.1c25.8,4.4,49.7,18,67.5,37c1.6-0.1,3.3-0.2,4.9-0.3
		c0.1-0.8,0.2-1.7,0.3-2.5C391.3,33.4,361.5,18,330,15.5C315.3,14.9,300.4,15,286.1,19.1 M302.7,32.1c-4,0.3-8,1-12,1.6
		c-2.3,0.8-4.6,1.5-7,2.1c-1.7,0.6-3.3,1.3-5,1.9c-4.9,1.5-9.1,4.5-13.9,6.2c-2.5,1.9-5,3.7-7.8,5.1c-5.7,3.6-10.8,8-15.6,12.8
		c0,0.8,0,1.7,0,2.5c2.2,0.9,4.4,1.8,6.6,2.8c1.4,0.8,2.8,1.5,4.2,2.3c0.5,0.1,1.5,0.3,2.1,0.4c1.7,1.1,3.5,2.1,5.2,3.2
		c2.3,1.4,4.7,2.7,7.1,3.9c1.5,1.1,3,2.2,4.4,3.4c0.5,0.2,1.5,0.6,1.9,0.8c2.2,1.6,4.4,3.3,6.6,4.8c3.7,3.3,6.8,7.3,11.1,10
		c6.2,6,10.6,13.6,16.7,19.6c0.1,0.5,0.3,1.6,0.4,2.1c1.8,2.4,3.6,4.8,5.1,7.4c1,2.2,2,4.4,3.1,6.7c1.6,0,3.3,0,4.9-0.1
		c4.4-8.9,9.8-17.3,15.9-25.1c6.1-7.1,12.9-13.7,19.8-20c7.1-4.9,14-10.3,21.7-14.4c4.1-2.3,8.4-4.1,12.6-6.3c1.3-0.2,2.6-0.4,4-0.5
		c0.7-3.5-1.1-6.2-3.8-8.3c-1.5-1-3-2-4.5-3c-4.7-4.3-10.2-7.4-15.6-10.6c-4.9-2.2-9.7-4.8-14.9-6c-1.2-0.6-2.4-1.2-3.6-1.8
		c-0.6,0-1.7-0.1-2.3-0.1c-1.2-0.6-2.4-1.2-3.6-1.8c-3.8-0.4-7.5-1-11.2-1.5c-5.3-1.6-10.9-0.7-16.3-0.9
		C313.5,31.4,308,30.5,302.7,32.1 M153,73.3c-32.8,10.5-60.3,35.3-75,66.2c-1.6,3.6-3,7.3-4.7,10.8c-2.5,8.4-4.8,17-6,25.7
		c-1.5,8.5-2.1,17.2-0.6,25.8c1.6-0.9,3.2-1.9,4.8-2.8c0-6.3-0.2-12.7,1.1-18.9c1-12.4,4.7-24.4,9.5-35.9
		c8.6-18.5,21.5-35.2,38-47.4c22-16.9,50.1-25,77.7-24.3c1.1-1.9,2.2-3.7,3.2-5.6C184.7,66.2,168.4,68.6,153,73.3 M436.8,67.4
		c0.7,1.7,1.3,3.4,2,5.1c16.3-0.2,32.8,1.9,48.1,7.8c23.1,8.4,43,24.4,57.1,44.5c5.9,8.3,10.2,17.5,14.1,26.8
		c5.4,15.3,7.8,31.6,7.4,47.8c1.7,0.2,3.4,0.3,5.2,0.5c0.5-9.3-0.4-18.5-1.4-27.7c-4.8-27.7-19-53.8-40-72.5
		C504.5,76.9,470.3,65.3,436.8,67.4 M212.6,71c-0.1,0.9-0.2,2.6-0.3,3.5c1.9,0,3.8,0,5.7,0c0.6-1.5,1.2-3,1.8-4.6
		c-1.4-0.4-2.8-0.8-4.1-1.2C214.6,69.4,213.6,70.2,212.6,71 M416.8,69.5c0.8,1.8,1.6,3.5,2.6,5.2c1.8-0.2,3.7-0.3,5.5-0.5
		c-0.5-1.6-1.1-3.3-1.6-4.9C421.1,69.4,419,69.4,416.8,69.5 M400.1,74.8l-0.8,0.4c-33.4,12.3-60.8,39.7-73.3,73
		c-1,3.5-0.5,7.5,1.9,10.3c1.7-4.5,3.3-9,5.2-13.4c6.2-14.7,15.7-27.8,27.2-38.9c13.5-12.8,29.7-23,47.7-28c-0.8-1.7-1.6-3.4-2.4-5
		C403.8,73.7,401.9,74.2,400.1,74.8 M230.4,74.1c-0.1,1.1-0.2,3.2-0.2,4.3c4.1,1.4,8.1,2.9,12.1,4.5c2.4,1.3,4.9,2.5,7.3,3.7
		c14,7,25.8,17.8,36.2,29.3c8.3,9.9,15,21.2,19.6,33.2c1.3,3,1.6,6.6,4.6,8.5c0.5-2.8,2.1-5.7,1.3-8.6
		c-11.3-29.7-33.9-55.2-62.6-69.1C242.9,77.3,237,74,230.4,74.1 M444.5,83.6c0,1,0,1.9,0,2.9c0.5,0.4,1.4,1.2,1.9,1.6
		c0.1,0.6,0.2,1.8,0.2,2.4c0.5,0.7,1.1,1.4,1.7,2.1c0.3,1.2,0.5,2.3,0.8,3.4c1,3.5,2.3,6.9,2.7,10.6c0.5,0.7,1,1.4,1.5,2.1
		c0.4,4.4,1.2,8.7,1.6,13.1c1.6,4.6,0.8,9.5,1,14.3c-0.2,8,0.4,16-0.4,23.9c-0.5,1.5-0.8,3-1.1,4.5c-0.2,5.8-1.9,11.3-3.1,16.9
		c-0.6,0.8-1.2,1.5-1.7,2.3c0,1.7,0.1,3.4,0.2,5c1.4-0.2,2.9-0.5,4.3-0.8c2.5-0.7,4.9-1.5,7.4-2.3l0.2,0.9c2.6-1.4,5.4-3.3,8.5-2.2
		c1.9-0.5,3.8-1,5.7-1.5c3-0.3,6-0.4,9-0.7c6.7-1.2,13.8-1.2,20.5,0.1c4.5,0.4,9.2-0.3,13.6,1c3.9,1.5,8.3,1.1,12.1,3
		c5.5,0.7,10.9,2.2,15.6,5c1.1,0.3,2.2,0.6,3.3,0.9c1,0.4,2,0.9,2.9,1.3c0.8-0.1,1.6-0.1,2.4-0.1c0.1-4.3,0.2-8.7-0.1-13
		c-0.9-2.8-0.8-5.8-0.8-8.7l-1,0c-0.7-2.5-1-5-1.3-7.5c-1.7-3-2.7-6.4-3.2-9.8c-1.4-2.7-2.7-5.5-4-8.2c-0.7-1.1-1.3-2.2-2-3.3
		c-3.2-6.7-7.3-12.9-11.9-18.7c-5.7-5.9-11.4-11.9-17.6-17.4c-6.7-4.4-12.9-9.7-20.4-12.8c-3.7-1.5-7.3-3.3-10.9-5
		c-2.1-0.4-4.2-1.2-6.1-2.2c-0.5,0-1.5,0-2,0c-3.4-0.9-6.8-1.8-10.2-2.9c-4.9-0.1-9.8-1.3-14.7-1.3l0.1-0.6
		C447.7,82.4,446.1,83,444.5,83.6 M168.9,84.6c-1,0.4-2,0.8-3,1.2c-4.8,0.9-9.6,2.4-13.9,4.6c-0.4,0-1,0-1.4,0l-0.1,1.1
		c-0.6,0-1.9,0-2.5,0c-1,0.4-2,0.8-3,1.2c-3.7,1.9-7.1,4.4-10.8,6.5c-2.4,1.3-4.6,2.9-6.7,4.6c-3,2.2-6.3,3.9-9,6.6
		c-8.1,8-16.3,16.5-21.5,26.8c-1.3,2.2-2.7,4.3-4.1,6.4c-1.2,2.6-2.4,5.2-3.6,7.8c0,0.4,0,1.2-0.1,1.6c-0.9,1.9-1.7,4-2.3,6
		c-0.3,0.4-1,1.3-1.3,1.7c-0.3,1.7-0.7,3.4-1.1,5.1c-0.1,1.6-0.3,3.3-0.5,4.9c-1.1,2.8-1.7,5.7-1.8,8.7c0,4.1-0.1,8.3-0.2,12.4
		c2.3-0.1,4.6-0.2,6.9-0.4c1.2-0.6,2.5-1.2,3.7-1.7c1.7-0.7,3.5-1.4,5.2-2.1c0.7-0.1,1.4-0.2,2-0.4c3.6-1.3,7.3-2.4,11-3.4
		c6.1-0.1,11.9-2.2,18-2.2c2.1-0.1,4.2-0.2,6.2-0.7c4.8-0.5,9.7-0.5,14.5,0.3c6.5,0.2,12.8,1.7,19.1,2.9c5.6,1.4,11.2,2.9,17.1,2.7
		c0.2-7.3-3-13.9-3.8-21c-1.8-5.5-1.4-11.3-2.4-16.9c-1.1-9.3,1.4-18.4,0.9-27.6c0.6-0.7,1.3-1.3,1.9-2c0-2.6,0.1-5.3,0.1-7.9
		c0.6-0.7,1.2-1.4,1.9-2.2c0.1-1.4,0.1-2.8,0.2-4.3c0.9-2.7,1.6-5.4,2.4-8.1c0.7-1.4,1.4-2.8,2.1-4.1c0.2-0.4,0.7-1.3,0.9-1.7
		c0.4-2.6,0.7-5.2,0.8-7.8C183.5,83.2,176.2,83.7,168.9,84.6 M205.6,84.4c-3.4,5.5-5.3,11.6-7.7,17.6c-1.7,5.6-3.1,11.2-4.3,16.9
		c-1.5,5.2-1,10.7-1.8,16.1c-0.7,9,0.2,18.1,1.4,27c0.7,2.7,1.2,5.4,1.6,8.1c0.4,1.4,0.8,2.7,1.2,4.1c0.7,2.4,1.3,4.9,1.8,7.3
		c0.4,0.8,0.9,1.6,1.4,2.3c1.4,3.9,2.3,8,4.6,11.5c2.2,2.2,5.4,3.1,8.2,4.5c-4.7-8.8-8.6-18-10.8-27.7c-1.5-5.5-2.3-11.3-3.5-16.9
		c-0.3-9-0.3-18.1,0-27.1c1.1-5.6,2.1-11.3,3.5-16.9c1.8-7.6,4.4-15.1,8.3-22c0.2-1.5,0.3-3.1,0.5-4.6
		C208.8,84.4,206.6,84.4,205.6,84.4 M426,84.6c1.6,5.2,4.5,9.8,6.2,14.9c3.6,10.1,6.5,20.6,6.7,31.3c1.5,8.5,0.9,17.4-0.3,25.9
		c-0.4,7.6-2.7,15-4.7,22.3c-2.1,6.6-5.5,12.8-7.4,19.5c2.5-0.9,5.5-1.6,6.9-4.2c3.4-6,5.3-12.7,7.2-19.2c8.7-30,5.2-63.2-9.2-90.9
		C429.6,84.4,427.8,84.5,426,84.6 M404.2,90.4c-0.6,0.1-1.8,0.2-2.4,0.3c-1.7,0.8-3.4,1.5-5,2.3c-1.7,0.9-3.4,1.9-5,2.8
		c-1,0.4-2,0.8-2.9,1.1c-3.8,2-7.2,4.7-10.6,7.3c-6.5,4-11.2,10.1-16.7,15.2c-5.7,5.1-9,12.2-13.8,18.1c-0.1,0.5-0.3,1.5-0.4,2
		c-2.1,3.4-4.1,6.8-5.2,10.7c-1.5,3.2-3,6.4-3.9,9.9c-0.7,2.7-1.5,5.3-2.5,7.9c-0.1,0.8-0.1,1.5-0.2,2.3c-0.4,2.6-0.9,5.2-1.3,7.8
		c0.2,1.1,0.3,2.2,0.5,3.3c2.8,0.5,5.6,1,8.3,1.8c2.9,1.1,6,1.3,9.1,1.4c2,0.7,4,1.4,6.1,2.1c2.6,0.7,5.2,1.5,7.8,2.4
		c4.7,1.6,9.1,4,13.6,5.8c8.6,4.2,16.8,9.3,24.1,15.5c0.5,0,1.4,0.1,1.9,0.1c1.6-1.7,3.3-3.5,4.9-5.2c0.1-0.5,0.2-1.4,0.3-1.9
		c1.1-1.5,2.3-2.9,3.4-4.4c0.6-1.2,1.3-2.4,1.9-3.6c1.3-2.9,2.6-5.7,4.3-8.4c0.1-0.5,0.3-1.6,0.4-2.1c0.9-1.5,1.8-3.1,2.7-4.6
		c0.1-2.3,0.8-4.6,2-6.5c0.1-1.1,0.1-2.3,0.2-3.4l0.9-0.1c0.1-0.3,0.2-0.8,0.3-1.1c0.5-1.8,0.8-3.7,1-5.5c1.7-7.1,1.5-14.5,2.5-21.7
		c-0.7-8.3-1.3-16.5-2.6-24.7c-0.9-2.7-1.8-5.4-2.6-8.2c-1.4-3.7-2.5-7.4-4.4-10.9c-0.1-0.5-0.3-1.5-0.4-2.1
		c-1.3-1.9-2.5-3.9-3.7-5.8c-0.1-0.7-0.2-2.1-0.3-2.8C412,87,407.8,87.9,404.2,90.4 M221,88.5c-2.4,2.8-3.6,6.4-5,9.9
		c-0.4,0.9-0.9,1.9-1.4,2.8c-0.1,0.6-0.3,1.7-0.4,2.2c-0.6,0.7-1.1,1.4-1.7,2.2c-0.7,3.7-1.5,7.3-2.2,11l-1,0
		c0.2,4.9-0.7,9.7-1.9,14.4c-0.5,7.7-0.2,15.4-0.1,23.1c0.6,1.4,1.1,2.7,1.6,4.1c0.4,3.4-0.6,7.3,1.9,10.1c0.4,3.9,1.1,7.7,3.2,11.1
		c0.1,0.9,0.3,1.9,0.4,2.8c1.8,3.6,3.5,7.2,5.3,10.8c3.1,5.7,6.3,11.3,10.2,16.5c1.3,0,2.6,0,3.9,0c4.5-3.5,9.2-6.7,14.1-9.6
		c1.3-0.6,2.7-1.3,4-1.9c4.2-1.9,8.3-4.3,12.6-6.1c1.5-0.6,3-1.3,4.5-2c2.7-1,5.3-2,8.1-2.8c2.3-0.6,4.5-1.4,6.8-2.1
		c5.8-1.6,11.8-2.2,17.7-3.4c0-4.6,0.3-9.2-0.6-13.8c-0.8-3.7-2.1-7.3-3.3-10.8c-1.6-5.5-4.5-10.4-6.7-15.6c-1-1.8-2-3.6-3-5.4
		c-1.8-2.6-3.5-5.2-5-8c-6-6.1-10.8-13.3-17.5-18.6c-5.4-4.8-11.8-8.3-17.6-12.5c-3.2-1.9-6.5-3.5-9.9-4.8
		C232.5,90.3,227,86.9,221,88.5 M446.1,203c-4.5,1.1-5.9,5.8-7.9,9.4c7.7-3,15-6.9,23-9.1c6.4-1.9,13-2.9,19.6-4.4
		c19.7-2.6,39.9,0.3,58.5,7.1c4.8,1.7,9.2,4.4,14.1,5.9c0-1.9,0.1-3.9,0.1-5.8c-8.1-3.4-16.1-7.2-24.6-9.3
		c-9.1-2.1-18.4-4.3-27.8-4.2C482.2,191.8,463.5,196,446.1,203 M312.7,192.8c-6.1,0.9-12.4,0.2-18.5,2
		c-22.1,4.2-43.2,14.5-59.9,29.6c-20.5,18-35.1,42.8-40.2,69.7c-2.9,10.7-1.8,22-1.9,33c-0.5,11,2.9,21.6,5.5,32.1
		c0.4,0.8,0.9,1.5,1.3,2.3c1,3.6,2.4,7.2,3.8,10.7c6.3,12.1,13.3,24,22.9,33.8c10.2,11,22.4,20.1,35.8,26.9
		c10.6,4.7,21.4,9,32.9,11.1c15,2.5,30.5,2.6,45.6,0.4c19.1-3.5,37.6-11,53.2-22.6c19.7-14.3,35.1-34.5,43.7-57.3
		c6.7-17.6,9.3-36.6,8.1-55.4c-1.3-7.7-1.8-15.5-4.3-23c-4.3-16.3-12-31.8-22.6-45c-4.5-5.6-8.9-11.4-14.6-15.7
		c-11.4-10.7-25.1-18.7-39.6-24.5c-11.3-4-22.9-7.3-34.9-7.7C323.6,192.4,318.1,192.1,312.7,192.8 M83.4,206.1c0,2,0,4,0,6.1
		c7.7-3.1,15.2-6.9,23.2-9.1c10.3-2.7,20.8-4.7,31.4-5.2c20.2,0.3,40.8,4.4,58.7,14.2c0-1.1-0.1-3.3-0.1-4.4
		c-1.2-1.3-2.4-2.6-3.6-3.8c-4-1.2-7.9-2.8-11.8-4.3c-7.8-3-16.1-4.3-24.2-5.9c-10.3-0.6-20.8-0.4-31.1-0.2
		C111.2,195.1,96.9,199.8,83.4,206.1 M119.1,209.9c-1.3,0.5-2.7,0.9-4,1.4c-2.7,0.5-5.4,1.1-8,1.8c-2.7,1.3-5.4,2.5-8.1,3.7
		c-2.3,0.9-4.7,1.8-7,2.6c-0.3,0-1,0-1.4,0l-0.1,1.3c-0.4,0-1-0.1-1.4-0.2c-0.7,0.4-2.1,1.1-2.8,1.4c-0.4,4.2,1.3,8.1,2.9,11.8
		c0.6,3.6,2.1,6.9,4,9.9c5.8,11.4,13.3,21.8,22.4,30.8c3.8,3.5,8,6.5,12.1,9.8c4.3,2.9,8.7,5.8,13.4,8.1c1.1,0.6,2.1,1.3,3.2,2
		c0.5,0.1,1.6,0.4,2.1,0.6c2.4,1.5,4.9,2.6,7.6,3.4c1.8,0.5,3.6,1.2,5.3,1.9c0.9,0.2,1.9,0.4,2.8,0.6c1.4,0.4,2.8,0.7,4.1,1.1
		c1.5,0.5,3,1,4.5,1.5c-0.1,0.7-0.2,1.5-0.2,2.2l0.7-2.1c3,0.1,6,0.2,8.9,0.8c0.3-0.6,0.9-1.7,1.2-2.3c0.1-1.7,0.1-3.5,0.2-5.2
		c0.6-0.7,1.2-1.4,1.8-2.2c0-2.2,0.1-4.3,0.2-6.5c1-2.6,1.7-5.4,2.1-8.2c0.7-2.1,1.4-4.1,2.2-6.2l0.4-0.2c0.6-1.8,1.2-3.6,1.8-5.4
		c0.2-1.1,0.5-2.1,0.7-3.2c1.5-2.6,3-5.3,4.5-7.9c0.1-0.5,0.2-1.6,0.3-2.2c4.7-6.8,8.1-14.6,13.9-20.6c0-0.7-0.1-1.5-0.1-2.2
		c-6.3-3.6-11.7-8.9-18.4-11.8c-2.9-1.5-5.9-2.9-9-4.2c-1.1-0.2-2.1-0.4-3.1-0.7c-5.3-2.8-11.3-3.5-16.9-5.1c-1.7-0.4-3.3-0.6-5-0.9
		c-1.6-0.4-3.3-0.5-5-0.3c-1.5-0.2-3-0.5-4.5-0.8l0.1-0.7c-4.4,1-8.9,0.8-13.4,0.6C129.1,208.4,124.1,209.4,119.1,209.9 M481,209.2
		c-3,0.7-6,1.2-9,1.9c-3.8,0.9-7.6,1.6-11.4,2.5l-0.1,0.5c-2.9,1-5.8,2.2-8.6,3.5c-1,0.4-2,0.7-2.9,1.1c-7.3,3.8-14.3,8.1-20.9,12.9
		c0.4,2.1,1,4.1,1.7,6.1c2.9,2.4,4.7,5.7,6.6,8.8c4.5,6.6,7.3,14,10.7,21.2c0.9,2,1.7,4,2.5,6c0.1,1,0.2,2,0.3,3
		c2.1,3.5,2.3,7.8,3,11.8l0.7,0c0.1,0.6,0.2,1.8,0.3,2.4c0.9,3,0.9,6.1,0.9,9.2c0.3,0.6,1,1.9,1.4,2.5c3,0.1,6,0.4,9,0.7
		c2-0.5,4.1-1,6.1-1.5c1.6-0.3,3.2-0.7,4.8-1c3-0.9,6-2.1,8.9-3.2c0.4-0.1,1.1-0.3,1.5-0.4c1.7-0.9,3.4-1.6,5.3-2.1l0.2-0.1
		c8.2-5,17.1-9.3,24-16.3c6.9-5.4,12.8-12,18.4-18.8c1.9-4.1,4.8-7.7,7.3-11.5c0.5-1.2,1.1-2.4,1.6-3.6c2.7-4.7,4.3-10,6.5-14.9
		c0.2-2.6,0.2-5.2,0.2-7.9c-6.4-4.2-13.9-6.4-21-8.9c-6.4-2.2-13.2-2.6-19.7-4.5c-6-0.5-12-0.2-17.9-0.3
		C487.6,208.3,484.2,208.1,481,209.2 M67.5,216.5c0.5,1.5,0.9,3.1,1.4,4.6c1.6-0.9,3.2-1.8,4.8-2.7c-0.2-1.8-0.3-3.7-0.4-5.5
		C70.9,213.4,69,214.7,67.5,216.5 M564.1,214.2c0.1,1.8,0.1,3.6,0.2,5.4c1.1,0.1,2.3,0.2,3.4,0.3c0-1.8-0.1-3.6-0.1-5.4
		C566.5,214.4,565.3,214.3,564.1,214.2 M49,232c-20.8,21.9-34.4,51.5-34.6,82c-0.5,13.8,0.6,27.7,4.4,41c1.4,4.8,3.4,9.4,5.1,14
		c6,13.8,14.1,26.6,24.6,37.4c2.7,2.7,5.2,5.8,9,7c0.1-1.9,0.1-3.8,0.2-5.8c-16.2-15-27.8-34.6-33.9-55.8c-3.8-13.3-5-27.2-3.7-40.9
		c0-15.1,4.9-29.6,10.7-43.4c7-13.4,15.6-26.2,26.9-36.4c0-1.9-0.1-3.9-0.2-5.8C54,226.6,51.5,229.4,49,232 M579.4,225.5
		c-0.1,1.9-0.1,3.8-0.1,5.8c14.6,13.7,25.7,30.9,32,49.9c0.9,3,1.5,6.2,2.7,9.1c4.1,17.5,5.2,36.1,0.8,53.6
		c-4.5,24.4-17.6,47-35.6,63.9c0,2,0.1,3.9,0.2,5.9c5.7-2.3,9.3-7.5,13.3-12c12.5-14.2,21.1-31.6,26.4-49.7
		c1.8-7.9,3.6-15.8,3.6-23.9c0-6.7,0.2-13.3,0-20c-2.2-24.5-11.8-48.2-27.1-67.4C590.3,235.4,586.6,228.1,579.4,225.5 M73.2,231.3
		c-0.1,3.7,0.5,7.5,2.2,10.8c4.4,9.5,9,19,15.5,27.2c5,6.3,9.9,12.8,16.3,17.8c11,10.2,24,18.2,37.8,24c0.5,0.2,1.4,0.6,1.9,0.8
		c3.7,1.7,7.6-0.6,11.3-1.1c-5.4-3.1-11.4-4.6-17-7.3c-20.5-9.7-38.1-25.3-50.5-44.2C86,252,82.2,244.1,78.9,236
		c-0.3-1.6-0.6-3.1-0.9-4.7C76.4,231.3,74.8,231.3,73.2,231.3 M559.6,231.2c-6.3,18.6-16.6,36.1-31,49.4
		c-12.9,13.2-29.3,22.5-46.5,28.7c-0.6,0.1-1.8,0.3-2.4,0.4l0,1.4c2.8,0.5,5.6,1.5,8.4,1.4c3.1-0.8,5.9-2.4,8.9-3.5
		c7.3-3.4,14.4-7.3,20.9-12.1c8.7-5.8,16-13.4,23.1-21c8.7-10.5,15.9-22.4,21-35.1c1.4-3,1.9-6.2,2-9.4
		C562.8,231.4,560.7,231.2,559.6,231.2 M59.8,243.4c-3.8,4.1-7.5,8.2-10.8,12.7c-1.3,2.1-2.7,4.1-4,6.1c-1.1,1.9-2.2,3.8-3.4,5.6
		c0,0.5-0.1,1.5-0.2,2.1c-1.7,2.9-3.3,6-4.9,8.9c0,0.6,0.1,2,0.1,2.6l-0.8,0.2c-0.3,0.5-0.9,1.6-1.2,2.1c-0.1,1.1-0.2,2.1-0.3,3.2
		c-1.2,2.7-2,5.6-2.7,8.5c-0.1,2.2-0.1,4.4-0.6,6.6c-1.4,5.5-0.7,11.2-0.8,16.8c0.1,6.1-0.6,12.4,0.9,18.5c0.5,4.3,0.7,8.6,2.2,12.7
		c0,0.3,0.1,1,0.1,1.3h0.9c0.2,2.1,0.2,4.4,2,5.8c0.1,0.4,0.3,1.3,0.4,1.8c0.4,1.5,0.8,3,1.2,4.5c2,3.3,3.9,6.7,5.2,10.3
		c1.5,2.8,3.1,5.5,4.9,8.1c3.8,4.7,7.9,9.3,12,13.8c1.4-0.1,2.9-0.1,4.3-0.2c0.1-0.8,0.2-2.4,0.3-3.2c0.6-0.7,1.3-1.3,1.9-2
		c0-1.3,0.1-2.5,0.1-3.8c0.5,0,1.4,0,1.8,0.1c0-0.8,0.1-2.2,0.1-3c2.5-3.6,4.5-7.5,6.6-11.3c2.2-4,5.1-7.5,7.9-11.2
		c2.2-4.3,6.1-7.3,9.2-10.8c10.9-11.7,23.8-21.6,38.3-28.4c0.1-1.3,0.1-2.6,0.2-3.9c-5.1-2.7-9.6-6.2-14.7-8.8
		c-5.2-4.1-10.8-7.7-15.4-12.4c-6.7-4.6-10.8-11.7-16.7-17.2c-2-3.7-5.1-6.6-7.1-10.2c-1.8-3.3-4.4-6.2-5.6-9.8
		c-0.7-1.1-1.4-2.2-2.2-3.3c-1.2-3.4-2.7-6.7-3.9-10.1c-0.6-1-1.3-2-1.9-3C62.3,243.3,60.6,243.3,59.8,243.4 M573.4,243.2
		c-0.4,1.1-0.8,2.2-1.1,3.4c-0.4,0.4-1.3,1.3-1.7,1.7c0,0.6,0,1.7,0,2.2l-1.1,0c-0.5,2-1,4-1.3,6c-0.4,0-1.3,0-1.8,0
		c0.1,0.5,0.1,1.4,0.2,1.9l-1.1,0c0,0.7,0,2,0,2.6c-1.6,2-3.1,4.1-4.7,6.2c-0.1,0.5-0.2,1.6-0.3,2.2c-0.8,0.9-1.7,1.7-2.5,2.6
		c-6,9.9-13.8,18.8-22.9,26.1c-4.8,4.6-10.1,8.8-15.9,11.9c-4,2.8-8.6,4.6-12.5,7.6c-0.7,1.6-0.3,3.4-0.4,5c0.5,0,1.6-0.1,2.2-0.2
		l0.2,0.8c3.1,1.4,6,3,8.9,4.8c7.3,4.1,13.5,9.8,19.9,15c6,4.8,10.7,11.1,15.7,16.9c2.3,3.3,4.6,6.5,6.9,9.8c2,3.6,4.3,7.1,6,10.9
		c1.4,2.4,2.9,4.8,4.3,7.1c0,0.6,0.2,1.8,0.2,2.3c1.1,1.9,2.2,3.8,3.3,5.8c1.2,0,2.4-0.1,3.6-0.1c2.8-3,5.3-6.2,7.9-9.3
		c3.5-4.1,5.6-9,8.9-13.2c0.3-1,0.6-2.1,0.9-3.1c1.3-2.7,2.7-5.4,4.2-8c0.1-0.6,0.3-1.7,0.3-2.2c0.4-0.4,1.2-1.2,1.6-1.6
		c0.3-1.4,0.6-2.8,0.9-4.2c0.4-2.2,1.1-4.3,2-6.3c0.3-5.1,2.6-9.7,2.4-14.8c0.1-8.4,0.2-16.7,0-25c0-5.5-2-10.7-2.3-16.1
		c-0.5-0.8-1-1.5-1.5-2.3c-0.2-3.4-1.4-6.6-3.1-9.6c-0.1-1-0.3-2-0.4-3c-1.6-2.7-3-5.4-4.3-8.3l-0.2-0.3
		c-4.7-9.1-10.5-17.6-17.5-25.1C576.4,243.3,574.4,243.2,573.4,243.2 M100.2,358.3C89.1,370.4,80,384.5,74.2,400
		c-1,2.4-0.9,5.1-1.1,7.7c1.1,0.1,3.3,0.2,4.4,0.3c1-3.4,2.1-6.8,3.5-10c7-16.6,17.9-31.6,31.5-43.4c12.8-12,28.8-19.8,45.2-25.6
		c-3-1.3-6.3-3.3-9.7-2.1C129.9,333.4,113.6,344.5,100.2,358.3 M481.7,329.9c17.9,5.9,34.8,15.7,47.9,29.5
		c13.5,12.7,23.4,29,29.3,46.5c0.3,0.8,0.7,2.3,1,3.1c1.7-0.6,3.7-1.1,4.7-2.8c-0.5-4.3-2.7-8.1-4.3-12.1c-8.4-19.9-22.6-37-39.6-50
		c-9.7-7.4-20.6-12.8-31.7-17.7C486,326.5,482,325.9,481.7,329.9 M454.5,344.5c-0.7,3-1.3,6-2,9.1l-0.8-0.1
		c-0.2,2.4-0.5,4.8-1.1,7.1l-1.1-0.1c-0.1,1.2-0.1,2.4-0.2,3.5c-0.4,1.5-0.8,3-1.1,4.5c-0.5,0.8-1.1,1.6-1.6,2.3
		c0,0.6-0.1,1.7-0.2,2.2c-0.4,0.4-1.3,1.3-1.7,1.7c-0.3,1.1-0.6,2.1-0.8,3.2c-0.7,1.3-1.3,2.7-1.9,4c-3.7,7.3-8.3,14.2-13,21
		c-0.5,1.1-2.3,2.8-0.8,3.9c6.9,6.5,15.4,11,23.9,15.2c1,0.3,2,0.5,3,0.8c1,0.5,1.9,0.9,2.9,1.4c1.9,0.4,3.8,0.9,5.4,2
		c1.9,0.3,3.7,0.6,5.6,1c0.5,0.2,1.4,0.5,1.9,0.6c1.3,0.4,2.7,0.7,4,1.1c1.4,0.3,2.8,0.6,4.1,1c2.5,0.4,5.1,0.3,7.7,0.2
		c4.7,0.8,9.5,0.5,14.2,0.5c1.7,0.1,3.2-0.4,4.6-1.3l-0.3,1.1c2.8-0.1,5.6-0.3,8.4-0.7c0.5-0.1,1.6-0.4,2.2-0.5c1.7-0.4,3.3-0.7,5-1
		c2.3-0.7,4.7-1.4,7.1-2c1.6-0.5,3.2-1,4.8-1.5c1.5-0.5,2.9-1,4.4-1.5c0.7-0.6,1.4-1.1,2.1-1.6c0.7,0,2-0.1,2.7-0.1
		c2.5-1.5,5-3,7.5-4.5c0.4-4.9,0.4-10.1-2.8-14.1c-0.1-0.5-0.3-1.5-0.4-2c-0.8-1.7-1.5-3.4-2.2-5.1c-4.8-7.5-9-15.4-15-22.1
		c-6.3-8.1-14.5-14.2-22.3-20.6c-2.3-1.3-4.5-2.9-6.6-4.4c-0.6,0-1.9,0-2.6-0.1c-0.4-0.4-1.2-1.3-1.6-1.7c-1.9-1.1-3.9-2.2-5.8-3.2
		c-1.5-0.4-2.9-0.9-4.4-1.3c-1.9-0.9-3.8-1.7-5.7-2.5c-2.1-0.5-4.1-1.2-6.1-2c-2.1-0.5-4.2-1.1-6.3-1.4c-3.5-0.3-6.9-0.8-10.3-1.7
		C453.8,336.6,454.4,340.9,454.5,344.5 M172.9,336.2c-1.7,0.2-3.3,0.3-5,0.5c-1.8,0.4-3.6,0.8-5.4,1.1l-0.1,0.7
		c-0.6,0.1-1.8,0.2-2.4,0.2c-1.4,0.4-2.9,0.8-4.3,1.2c-2.1,1.1-4.2,2.2-6.3,3.4c-0.6,0.1-1.8,0.3-2.4,0.3c-1.1,0.4-2.1,0.8-3.1,1.3
		c-1.8,1-3.5,2-5.3,3l-0.2,0.8c-0.4-0.1-1.1-0.2-1.5-0.3c-4.5,3.1-8.9,6.5-13.3,9.7c-4.9,3.8-9.2,8.5-13.5,12.9
		c-4.6,5.7-10,11.1-13.2,17.9c-1.2,2.3-2.6,4.4-4.2,6.4c-0.1,0.6-0.2,1.7-0.2,2.2c-0.6,0.7-1.2,1.4-1.8,2.2
		c-0.2,1.1-0.4,2.1-0.6,3.2c-0.8,1.3-1.5,2.6-2.3,3.9c-0.7,3.1-1.5,6.1-1.7,9.3c5.5,2.9,10.7,6.4,16.7,8.1c1.7,0.6,3.4,1.4,5.1,2.1
		c1.4,0.1,2.7,0.2,4.1,0.3c1.6,0.5,3.2,1.1,4.8,1.6c5.7,1.5,11.7,0.9,17.3,2.4c3.8,0.6,7.7,0.7,11.5,0.2c5.1-1.2,10.3-0.3,15.4-1.7
		c1.3-0.4,2.6-0.8,4-1.2c2.6-0.7,5.3-1.4,7.9-2c2-0.7,4-1.4,6-2.1c10.2-4.3,20.6-9,28.8-16.6c0-1.9-0.1-3.9-0.1-5.8
		c-0.6-0.7-1.3-1.3-1.9-2c-9.4-12.9-16.2-27.6-20.9-42.9c-0.3-2.5,0.3-5.4-2-7.1c-0.1-2.2-0.2-4.4-0.4-6.6c-1.4-2.4-1.9-5.1-2.1-7.9
		C177.8,335.4,175.3,335.5,172.9,336.2 M68.9,418c-0.4,1.6-0.9,3.1-1.3,4.7c1.5,1.7,3.3,3,5.6,3.4c0.2-1.9,0.3-3.7,0.4-5.6
		C72,419.6,70.5,418.8,68.9,418 M563.4,419.7c0,2.1,0,4.3,0.1,6.4c1.6-0.6,3.4-1.1,4.7-2.2c0.3-2,0.2-3.9,0.2-5.9
		C566.8,418.6,565.1,419.1,563.4,419.7 M83.5,427c-0.1,2.1-0.1,4.1-0.1,6.2c8.2,3,16.2,6.8,24.7,9c14.9,4.3,30.6,3.9,46,3.3
		c13.4-1.2,26.4-5.1,38.6-10.5c3.1-1.1,3.7-4.6,4.7-7.4c-5.8,1.7-11.2,4.6-16.9,6.5c-22.2,7.8-46.7,8.5-69.5,3
		C101.3,434.9,92.4,431,83.5,427 M392.1,436.2c-2.7,1.4-5.2,3.3-7.7,5c-0.4,0.3-1.3,0.8-1.8,1c-0.7,0.8-1.5,1.4-2.4,1.8l-0.1-0.5
		c-2.5,0.3-4.7,1.9-7.2,2.4c-1.9,0.9-3.7,1.8-5.5,2.8l1.8,0.2c-1.8,0.4-3.5,0.8-5.3,1.3c-1.3,0.2-2.5,0.4-3.8,0.6
		c-6.3,3.3-13.6,3.6-20.4,5.3c-1.5,0.1-3.1,0.2-4.6,0.4c0,4.9,0.3,9.8,0.4,14.6c2.3,4.1,2,9.2,4.8,13.1c0.1,1,0.1,2.1,0.2,3.1
		c0.6,0.7,1.3,1.4,1.9,2.1c0,0.4,0.1,1.3,0.2,1.7c0.4,1.1,0.9,2.2,1.3,3.3c1.5,2.2,2.9,4.4,4,6.8c1.8,3.8,4.3,7.3,7.5,10.1
		c0,0.5,0.2,1.5,0.2,2c2.9,3.2,6.1,6.1,8.5,9.7c3,2.4,5.9,4.8,8.5,7.6c4,4.5,10,6.4,14.1,10.8c2.5,1.1,5,2.3,7.5,3.5
		c3.5,2.1,7.6,3.2,11.1,5.5c1,0.1,2,0.2,3,0.4c2,0.7,4.1,1.3,6.1,2.1c1.4-1.7,2.8-3.4,4.1-5.1c0-0.6,0.1-1.9,0.2-2.6
		c0.4-0.4,1.1-1.3,1.5-1.8c0.6-2.5,1.8-4.9,3.2-7c0.1-1.1,0.3-2.1,0.4-3.2c1.4-3.3,2.3-6.7,3.5-10c1.6-7.6,2.1-15.3,2.4-23.1
		c0.2-6.2-0.4-12.5-0.9-18.7c-0.3-1.7-0.7-3.3-1.1-4.9c-0.1-1.5-0.1-2.9-0.2-4.3c-0.7-1.2-1.3-2.4-2-3.6c0-1.2,0-2.4,0-3.6
		c-0.6-0.7-1.1-1.5-1.7-2.2c-0.4-1.6-0.8-3.1-1.2-4.7c0-0.3,0-1,0-1.3l-1.3-0.2c0.1-0.4,0.2-1.3,0.3-1.8l-1.2-0.1
		c0-0.7-0.1-2-0.1-2.7c-1.3-2-2.4-4.2-3.4-6.5c-2.3-3.6-4.6-7.3-6.8-10.9c-1.4-2-2.8-3.9-4.2-5.9c-0.6-0.1-1.8-0.3-2.3-0.3
		C399.9,431,396.4,434.2,392.1,436.2 M539.3,432.9c-21.8,8.5-46.1,10-68.9,5.1c-7.5-1.9-15.2-3.7-22.2-7.2c-2.7-1.4-5.7-2.5-8.6-3.2
		c0.9,2.4,1.3,5.8,4,7c9,4.1,18.4,7.4,28.1,9.2c11.2,2.5,22.8,1.9,34.2,1.9c16.6-0.6,32.5-6.1,47.6-12.8c0-2-0.1-3.9-0.2-5.9
		C548.5,428.7,544.1,431.2,539.3,432.9 M230.1,429.1c-3.7,5.2-6.6,10.9-10.4,16.1c-0.1,0.5-0.3,1.5-0.4,1.9c-1.4,3-2.9,6.1-4.8,8.9
		c-0.1,1.1-0.2,2.3-0.3,3.4c-0.5,0.7-1.1,1.5-1.6,2.2c-0.3,1.4-0.6,2.8-0.9,4.2c-0.5,2-1,4-1.6,6c-1.2,3.7-0.8,7.7-2.1,11.3
		c-1.5,4.4-0.7,9.1-0.9,13.6c0.1,4.7-0.5,9.5,0.8,14.1c0.2,0.7,0.4,1.4,0.6,2.2c0.7,3.4,0,7.2,2.2,10c0.4,2.3,0.6,4.6,1,6.9
		c0.2,0.7,0.6,2.2,0.8,2.9c0.4,0.4,1.2,1.1,1.6,1.4c0,1.2,0.1,2.5,0.1,3.7c0.8,1.3,1.6,2.6,2.4,3.9c0.6,1.8,1.3,3.5,2,5.3l0.7,0.1
		c0,0.7,0.1,2.2,0.1,3c3.5,0.3,7.2,0.7,10.6-0.3c3.3-1.2,6.4-2.8,9.6-4.4c0.4-0.2,1.1-0.4,1.5-0.6c2.4-1.3,4.9-2.4,7.5-3.2
		c1.3-1.1,2.6-2.2,3.9-3.4c0.5-0.1,1.6-0.3,2.2-0.4c1.4-1.2,2.7-2.3,4.1-3.4c5.7-4.6,11.4-9.4,16.1-15.2c2.9-3.7,6.5-6.9,9.3-10.6
		c1-2.3,2.4-4.5,4-6.4c0.1-0.5,0.4-1.5,0.5-2c0.9-1.1,1.8-2.1,2.6-3.2c0.1-0.5,0.2-1.4,0.3-1.9c0.5-0.7,1.1-1.4,1.6-2.1
		c0.4-1.7,0.9-3.3,1.7-4.8c0.4-0.9,0.8-1.8,1.2-2.7c1.1-3.2,2.2-6.4,2.9-9.7c3.4-6,2.5-13.2,2.5-19.8c-6.6-0.4-13.1-2-19.5-3.8
		c-1.8-0.5-3.6-1-5.3-1.5c-1.6-0.6-3.2-1.1-4.8-1.7c-0.8-0.1-1.5-0.1-2.3-0.2c-1.4-0.9-2.8-1.7-4.2-2.5c-1.9-0.7-3.9-1.3-5.9-1.7
		c-7.4-4.6-15.4-8.3-22.3-13.7C235.4,429.7,232.8,429,230.1,429.1 M65.8,437.6c-0.2,7.8-0.3,15.7,1.3,23.4
		c4.2,38.3,27.5,74,60.8,93.3c21.5,13,47,18.6,72.1,18c-0.4-1.8-0.7-3.7-1-5.5c-5.3-0.8-10.7-1.2-16-1.1c-8.4,0.1-16.7-2-24.8-4.3
		c-33.8-9.6-62.6-35.1-76.5-67.4c-2-4.3-3.5-8.8-4.9-13.3c-2.4-7.8-3.8-15.8-4.6-23.9c-1.3-5.6-0.7-11.4-0.8-17.2
		C69.5,439.1,67.7,438.3,65.8,437.6 M565.4,439.6c0.1,12.6-0.9,25.3-4.4,37.5c-7.4,28.1-25.5,53.2-49.8,69.2
		c-21.2,14.3-47,21.1-72.5,20.2c-0.6,1.7-1.2,3.4-1.8,5.1c14.1,0.5,28.4-0.2,41.9-4.4c24.4-6.7,46.6-21.1,62.7-40.6
		c7.2-8.4,12.8-17.9,17.8-27.6c0.1-0.6,0.2-1.8,0.2-2.4c0.4-0.4,1.1-1.3,1.5-1.7c2.2-5.9,4.3-11.8,5.8-17.9
		c3.5-12.3,4-25.2,3.8-37.9C568.9,439.2,567.2,439.4,565.4,439.6 M203,443.8c-1.3,5.6-4.3,10.6-5.8,16.1c-2.2,6.9-3.3,14-4.7,21
		c-0.4,11.7-0.6,23.5,0.2,35.2c1.8,8,3.2,16.1,6.2,23.7c1.6,5.1,3.9,10,6,14.9c2,0,4-0.1,5.9-0.2c-3.5-8.8-7.8-17.3-9.8-26.5
		c-1.2-5.6-2.5-11.2-3.5-16.8c-0.3-9.1-0.3-18.1-0.1-27.2c2.3-13.4,5.1-27,11.8-39c0.1-1.1,0.4-3.3,0.5-4.4
		C207.6,441.6,205.3,442.7,203,443.8 M426.7,440.5c1.1,6,4.3,11.3,6.3,17.1c3,8.7,5.4,17.7,5.8,26.9c2.1,11.2,0.4,22.5-0.7,33.6
		c-1.5,7.3-3.3,14.5-5.9,21.4c-1.7,5-4.8,9.6-5.2,15.1c1.7,0,3.4,0,5.1-0.1c2.2-6.1,5-12,7-18.1c3.3-10.5,5.6-21.3,5.7-32.4
		c0-9.8,0.4-19.7-1.7-29.3c-2-10.3-4.8-20.6-9.6-30C432.3,442,429.2,441.5,426.7,440.5 M81.7,446.3c0.1,7.5-0.5,15.5,2.5,22.6
		c0.4,2.8,1,5.5,1.4,8.3c0.6,1.2,1.3,2.4,1.9,3.6c0,0.7,0,2,0,2.6c0.6,0.8,1.2,1.5,1.8,2.3c0.2,1.1,0.4,2.1,0.6,3.2
		c0.8,1.3,1.6,2.6,2.5,3.9c0.1,0.5,0.3,1.5,0.5,2c0.7,1.4,1.4,2.8,2.1,4.2c2.8,5.2,6.4,9.9,9.8,14.7c3.8,5.3,8.9,9.5,13.3,14.2
		c4.7,5.1,10.9,8.5,16.6,12.4c4.6,3.3,10.2,4.9,15,7.9c0.5,0.1,1.5,0.3,2,0.4c0.4,0.4,1.2,1.2,1.6,1.6c2.6,0.5,5.2,1.1,7.8,1.5
		c0.6,0.3,1.9,0.8,2.5,1c0,0.2,0,0.5,0,0.7c1.9-0.3,3.9-0.7,5.5,0.6c3,0.7,6,1.2,9.1,1.7c2.1,0.5,4.3,0.7,6.5,0.7
		c0.8,0.1,2.3,0.5,3,0.6l-0.5-1.5c1,0.4,2,0.7,3,1.1c0.6-0.4,1.9-1.2,2.5-1.6c-0.4-0.6-0.8-1.3-1.2-1.9c-0.1-0.5-0.2-1.6-0.2-2.1
		c-2-3.8-3.2-7.9-4.6-11.9c-1.6-5.9-4.1-11.6-3.5-17.9c-0.6-1-1.1-2-1.5-3.1c-1.5-10.7-1.6-21.5-1.2-32.2c0.5-4,1-8,1.1-12
		c0.6-0.8,1.2-1.6,1.8-2.3c0-1.9,0.1-3.8,0.1-5.8c0.6-0.7,1.2-1.5,1.8-2.2c0.1-3,0.6-5.9,1.5-8.7c0.4-1.4,0.7-2.8,1-4.2
		c-1.7-0.1-3.5-0.1-5.2-0.1c-0.4,0.4-1.3,1.3-1.7,1.7c-1.9,0.3-3.8,0.6-5.6,1c-3.6,0.6-7.1,1.7-10.8,2.3c-1.1,0-2.2,0.1-3.3,0.2
		c-1.9,0.7-4,1.2-6,1.1c-9.4,0-18.7-0.1-28,0c-2.4,0.1-4.8-0.3-7-1.1c-1.7-0.1-3.3-0.2-5-0.3l1.9-0.7c-4,0-8.2,0.2-11.6-2.1
		c-1.6-0.1-3.3-0.1-4.9-0.1l0.3-1c-0.5,0-1.6,0.1-2.1,0.1l-0.1-0.8c-3.3-0.6-6.4-1.7-9.4-3.1C86.6,447.1,84.2,446.6,81.7,446.3
		 M550.2,446.6c-2.7,1.4-5.4,2.6-8.1,3.8c-0.8,0-1.5,0-2.3,0c-1.5,0.6-3,1.2-4.5,1.9c-1.1,0.2-2.2,0.5-3.2,0.8
		c-2.1,0.6-4.1,1.2-6.1,1.7c-1.7,0.3-3.4,0.6-5,0.8c-2.7,0.3-5.3,0.8-7.9,1.6c-10.2,1.3-20.5,1.4-30.7,0.4c-4-0.9-8-1.7-12.1-2
		c-3.7-0.9-7.4-2-11.1-3c-0.5-0.1-1.5-0.4-2-0.5c-2.3-0.7-4.6-1-6.9-1.2c0,2.2,0,4.4,0.1,6.6l1.3-0.1c0,1.3-0.1,2.5-0.1,3.8
		c0.6,1.2,1.3,2.4,1.9,3.6c0.1,1.3,0.2,2.7,0.4,4c0.6,1.9,0.7,3.9,0.9,5.9l0.5-0.3c0.1,2.3,0.3,4.6,1.1,6.7
		c1.9,11.2,1.1,22.5,0.1,33.7c-2.3,5.9-1.6,12.6-4.4,18.3c-0.2,0.9-0.4,1.8-0.5,2.7c-1.5,2.1-1.9,4.6-2,7.2
		c-1.2,2.2-2.3,4.5-3.4,6.8c-0.4,1.9-0.8,3.8-1.2,5.7c3,0,6.1,0.1,9.2,0.1c7.9,0.1,15.5-2,23-4c1.5-0.5,3-1,4.6-1.5l0.1-0.5
		c1.1-0.3,2.3-0.6,3.4-0.9c2.3-0.9,4.5-1.9,6.6-3c0.6-0.2,1.8-0.5,2.4-0.6c3.9-2.5,8-4.6,11.7-7.3c1.6-1.2,3.3-2.3,5.1-3.4
		c11.9-8.6,21.4-20.2,29.2-32.5c0.7-1.1,1.3-2.3,1.9-3.4c0.6-1.2,1.3-2.5,2-3.7c0.3-1.1,0.6-2.1,0.9-3.2c0.8-1.5,1.7-3,2.5-4.6
		c1.2-2.8,2.2-5.6,2.6-8.7c0.5-0.7,1-1.4,1.4-2.2c0.4-4.8,2.5-9.4,2.6-14.3c1.2-5.3,0.7-10.7,0.7-16
		C553.2,446.2,551.7,446.4,550.2,446.6 M305.8,489c-13.1,33.8-41.9,61.5-76.8,71.9c0.6,1.6,1.1,3.3,1.7,4.9
		c37-10.4,67.1-40.3,80.6-75.9c0.8-2.6-0.5-5.2-1-7.7C307.2,483.1,306.7,486.4,305.8,489 M325.7,485c-1.2,5.4,2.3,10.1,4.1,15
		c1.1,2.1,2.3,4.3,3.5,6.4c15,28.3,41.6,50.2,72.3,59.6c0.8-1.7,1.6-3.3,2.4-5c-21.2-6.5-40.6-19-55-35.9
		c-11.8-12.8-19.8-28.6-25.2-45.1C327.3,481.2,326.2,483.7,325.7,485 M316.7,506.3c-2.3,5.4-4.6,11-9,15.1c-0.1,0.5-0.2,1.6-0.3,2.1
		c-2.1,2-4.1,4.2-5.3,6.8c-6,8.1-13.2,15.3-20.9,21.7c-1.3,1.1-2.5,2.3-3.8,3.4c-0.5,0.1-1.5,0.2-2,0.3c-4.5,4.2-10,7-15.1,10.3
		c-3.7,2.1-7.4,4.1-11.3,5.8c-1.1,0.2-2.3,0.4-3.4,0.6c-2.1,1.5-2.6,4-2.3,6.5c5.5,4.6,10.4,9.8,16.7,13.3c2.1,1.2,4.2,2.5,6.4,3.8
		l0.2,0.5c0.6,0.1,1.9,0.2,2.6,0.3c2.2,1.3,4.5,2.5,6.8,3.6c1,0.2,2.1,0.4,3.1,0.6c1,0.5,2,1,2.9,1.6c0.2,0.1,0.7,0.2,1,0.3
		c2.4,0.7,4.8,1.4,7.1,2c3.5,1.1,7.1,1.9,10.8,2.6c11.1,0.5,22.3,0.5,33.4,0c9.3-1.4,18.4-3.9,27.2-7.2l0.2-0.5
		c4.7-2,9.1-4.3,13.6-6.6c6.9-4.3,13.6-9.1,19.5-14.9c0-0.9,0-2.7-0.1-3.5c-2.5-1.7-5.2-2.9-8.1-3.6l-0.2-0.3
		c-4.6-2.1-9.1-4.5-13.4-7.2c-0.5-0.1-1.4-0.4-1.9-0.5c-3.2-2.6-6.3-5.4-10-7.3c-1.7-1.2-3.5-2.5-5.1-3.9
		c-4.3-4.3-9.4-7.8-13.4-12.4l-0.1-1.1c-1.9-1.9-3.8-3.9-5.6-5.9c-6.6-8.1-11.9-17-16.7-26.3C319.3,506.4,317.6,506.3,316.7,506.3
		 M212.3,564.3c0.2,1.7,0.4,3.4,0.6,5.1c2.4,0.1,4.8,0.1,7.2,0c-0.3-0.8-0.9-2.5-1.1-3.3C217.9,563.5,214.4,564.8,212.3,564.3
		 M418.8,564.5c-0.6,1.7-1.2,3.3-1.7,5c2.1,0.1,4.2,0.1,6.3,0.2c0.5-1.7,1.1-3.4,1.6-5.1C422.8,564.5,420.8,564.5,418.8,564.5
		 M224.6,580.5c1.8,5.3,6.6,8.6,10.5,12.3c19.3,17.2,44.1,27.9,69.7,30.7c9.1,0.4,18.2,0.3,27.2,0.1c13.4-1.4,26.4-5.5,38.9-10.5
		c4.4-2.7,9-4.9,13.5-7.4c9.1-5.7,17.6-12.4,25-20.1c1.5-1.4,2.1-3.3,2.8-5.1c-2,0-4,0-6.1,0c-3,3.6-6.3,6.9-10,9.8
		c-15.5,13.1-34.4,22.1-54.3,26.2c-7.2,2-14.7,1-22,1.9c-12.9,1.3-25.7-1.8-38.1-5c-19.5-6.7-37.8-17.6-51.7-32.9
		C228.4,580.3,226.5,580.4,224.6,580.5z"/>
	<path class="st0" d="M309.6,198.4c14.8-0.5,29.8,0.4,44,4.9c29.1,8.5,54.4,28.7,69.6,54.8c6.1,9.9,9.9,20.9,13.1,32
		c2,7.9,2.2,15.9,3.3,23.9c0.5,5.7,0,11.5-0.8,17.2c-0.6,11.3-3.6,22.3-7.6,32.8c-15.7,40.5-54.8,71.1-98.1,75.6
		c-9.7,0.4-19.4,0.4-29.1,0c-42.6-4.5-81.1-34-97.3-73.5c-5.5-13.2-8.9-27.6-8.5-42c0.2-8.7-0.7-17.5,1.1-26c0.6-4,1.6-8,2.5-12
		c0.8-2.3,1.5-4.5,2.3-6.8c12.4-36.6,43.7-66,80.8-76.5C292.9,200.6,301.2,199.1,309.6,198.4 M295.4,211.1
		c-23.6,5.1-45.4,17.9-61,36.3c-10.8,11.8-17.7,26.6-22.6,41.7c-0.2,1.3-0.4,2.6-0.5,3.9c-2.6,8.3-3.2,17.2-3,25.9
		c0.1,5.1-0.3,10.3,0.9,15.2c0.3,2.1,0.4,4.1,0.7,6.2c4.2,20.3,13.7,39.6,28,54.5c14.9,16,34.8,27.5,56.2,32.1c3.3,0.7,6.6,1.5,10,2
		c19.9,1.7,40.6-0.2,58.9-8.7c34-14.7,59.5-47.6,64.6-84.3c0.5-3.7-0.2-7.4-0.8-11c0.8,0.9,1.5,1.7,2.3,2.6c0.5-7.6-0.8-15.2-1-22.8
		c-2.5-17.7-9-35-19.5-49.6c-3.9-5.4-8.5-10.2-12.9-15.1c-14.4-13.6-32.2-24.1-51.7-28.3c-11.1-3.3-22.8-2.7-34.2-2.6
		C305,209.2,300.2,210.2,295.4,211.1z"/>
	<path class="st0" d="M227.2,343.5c2.5,0.1,5,0.1,7.6,0c-0.1,1.8-0.1,3.5-0.2,5.2c-0.8-1.4-1.5-2.9-2.3-4.3c-1.6,0-3.3,0-4.9,0
		c0.1,1.5,0.2,3,0.3,4.5c2.7,1.2,5.3,2.5,7.9,3.9c-0.2,2.2-0.5,4.4-0.9,6.5c-1.5,0.1-3.1,0.1-4.6,0.2c-1.6-0.1-3.3-0.1-4.9-0.1
		c0.2-1.9,0.4-3.8,0.6-5.7c0.6,1.6,1.3,3.3,1.9,4.9c2,0,4,0,5.9,0c-0.1-1.6-0.1-3.1-0.2-4.7c-2.7-1.3-5.3-2.7-8-4
		C225.3,347.6,225.3,345.2,227.2,343.5z"/>
	<path class="st0" d="M242.4,343.4c1,0,2.1,0.1,3.1,0.1c-0.1,2.4-0.1,4.8-0.2,7.2c2.5,0,5,0,7.4,0c-0.1-2.4-0.2-4.8-0.3-7.2
		c1,0,2.1,0,3.1,0c0.2,5.6-1.1,11.6,0.9,17c-1.3,0-2.6,0.1-4,0.1c0.1-2.7,0.2-5.5,0.2-8.2c-2.5,0-5,0-7.5,0c0.1,2.8,0.2,5.5,0.3,8.3
		c-1,0-2.1,0-3.1,0C242.6,354.8,242.6,349.1,242.4,343.4z"/>
	<path class="st0" d="M262.5,347.4c2.7-3.3,6.9-4.2,10.9-4c1.7,1.9,4.5,3.5,4.3,6.4c0.1,1.8,0.1,3.6,0,5.4c-1.2,1.4-2.4,2.8-3.6,4.2
		c-0.7,0-2-0.2-2.7-0.2c0,0.4-0.1,1.1-0.1,1.5c-0.7-0.3-2.2-1-3-1.3c-1,0.1-2,0.1-3,0.2C261.9,356.4,262.4,351.7,262.5,347.4
		 M265.4,345.4c-1,3.1-1.2,6.4-1,9.7c0.9,1.1,1.8,2.3,2.6,3.5c2.1,0.1,4.2,0.2,6.3,0.2c2.8-4.2,2.9-9.3,0-13.4
		C270.7,345.3,268.1,345.3,265.4,345.4z"/>
	<path class="st0" d="M284.4,343.4c2.6,0.1,5.3,0.2,7.9,0.2c0.6,0.3,1.7,1,2.3,1.3c0,2.4,0,4.8,0,7.2c-2.6,1.1-5.3,2-8.1,2.6
		c0,0.9,0,2.8,0,3.8c0.9,0.6,1.7,1.2,2.6,1.9c-2,0.1-3.9,0.1-5.9,0.1c0.3-0.2,1-0.7,1.4-1C284.8,354.1,284.8,348.8,284.4,343.4
		 M286.5,344.5c0,3.1,0.1,6.1,0.9,9.1c0.8-0.1,2.4-0.2,3.2-0.3c1-1.2,1.9-2.5,2.9-3.7c-0.3-1.3-0.7-2.5-1-3.8c0-0.3,0.1-1,0.1-1.3
		C290.6,344.5,288.5,344.5,286.5,344.5z"/>
	<path class="st0" d="M343.8,342.3c1.6,5.9,0.4,12.1-0.4,18.1c-3.3-4.3-6.2-8.8-9.8-12.9c-0.2,4.3-0.2,8.7,0,13
		c-0.6,0-1.7-0.1-2.3-0.1c1.8-5.3,1.3-11,1-16.5c0.5,0.1,1.5,0.4,2,0.5c1.9,2.9,4,5.7,6.3,8.4c0,0.8,0.2,2.3,0.2,3.1
		c0.6-0.3,1.7-0.9,2.3-1.2C343.7,350.7,343.1,346.4,343.8,342.3z"/>
	<path class="st0" d="M352.1,343.5c1.3,0,2.6,0,3.9,0c-2.9,4.9-0.9,10.9-1.5,16.3c2.3-0.1,4.6-0.1,7-0.2c0.1-1.3,0.1-2.7,0.2-4
		c0.5,0,1.4,0,1.8,0c-0.4,1.6-0.8,3.2-1.2,4.8c-3.3-0.1-6.7-0.1-10,0.1c1.3-4.7,1.2-9.6,1-14.4C352.9,345.2,352.5,344.3,352.1,343.5
		z"/>
	<path class="st0" d="M369.3,343.3c0.6,0,1.7,0.1,2.3,0.1c-0.2,5.7-0.3,11.4,0,17c-0.6,0-1.7,0.1-2.3,0.1
		C369.3,354.8,369.4,349.1,369.3,343.3z"/>
	<path class="st0" d="M390.1,343.5c0.6,0,1.8,0,2.4,0c-0.2,5.4-0.2,10.7-0.1,16.1c-0.8,0-1.5-0.1-2.2-0.1c-2.9-4.2-5.5-8.8-9.6-12
		c-0.1,3.7,0,7.4-0.1,11.1l1.2,0.1c0,0.5,0,1.5,0,2c-0.6,0-1.7,0-2.2,0c0.3-5.5,0.4-11,0.1-16.4c0.6,0.1,1.8,0.3,2.4,0.3
		c2.6,3.5,5.2,7,7.4,10.8c0.6,0.1,1.7,0.2,2.2,0.3c-0.1-3.2-0.1-6.3-0.1-9.5C390.9,345.2,390.5,344.3,390.1,343.5z"/>
	<path class="st0" d="M398.6,343.8c3.9-0.2,7.8-0.2,11.7-0.2c0,1.2-0.1,2.3-0.1,3.5c-1-0.9-2-1.8-3-2.6c-1.6,0-3.2,0-4.8,0
		c0,2.3,0,4.5,0,6.8c1.9-0.5,3.8-1,5.2-2.4c-0.2,1.6-0.4,3.2-0.6,4.8l-0.7-2.2c-1-0.1-2.9-0.2-3.9-0.2c0,2.8,0,5.6,0,8.5
		c2.3-0.1,4.5-0.1,6.8-0.2c0.3-1.4,0.7-2.8,1.1-4.2c0.1,1.7,0.3,3.4,0.4,5c-4-0.1-7.9-0.1-11.9-0.2c0.5-0.2,1.4-0.6,1.8-0.9
		c0.1-4.9,0.1-9.9,0-14.8C400.1,344.4,399.1,344,398.6,343.8z"/>
	<path class="st0" d="M309.2,354.2c-0.4-4.2,1.4-8.1,4.6-10.7c2.9,1,6.1,1.1,9.1,1.2c1,2.4,2.5,4.7,2.6,7.3
		c-0.4,2.3-1.6,4.3-2.5,6.4c-1.7,0.1-3.4,0.3-5.1,0.5c1.5-0.8,3.1-1.4,4.3-2.6c0.9-3.7,0-7.4-1-10.9c-2.8,0-5.6,0-8.4,0.1
		c-0.6,2.5-1.5,5.1-1.2,7.7c0.5,2,1.6,3.7,2.5,5.5c1.3,0.1,2.5,0.2,3.8,0.3l1.6,0.1c-2.1,0.3-4.1,0.5-6.2,0.7
		C311.9,357.9,310.5,356.1,309.2,354.2z"/>
</g>
<g id="_x23_fedbfdff">
	<path class="st1" d="M286.1,19.1c14.2-4.1,29.2-4.2,43.9-3.6c31.5,2.4,61.4,17.8,82.6,41.1c-0.1,0.8-0.2,1.7-0.3,2.5
		c-1.6,0.1-3.3,0.2-4.9,0.3c-17.8-19.1-41.7-32.6-67.5-37c-34.1-6.4-70.8,3-97.6,25.1c-4.7,3.6-8.8,7.9-13.1,12.1
		c-2-0.5-4.1-1-6.1-1.4C239.8,39.4,261.8,25.3,286.1,19.1z"/>
	<path class="st1" d="M153,73.3c15.4-4.7,31.7-7.1,47.8-6.5c-1,1.9-2.1,3.8-3.2,5.6c-27.6-0.7-55.7,7.4-77.7,24.3
		c-16.5,12.2-29.4,28.8-38,47.4c-4.8,11.5-8.5,23.5-9.5,35.9c-1.3,6.2-1.1,12.6-1.1,18.9c-1.6,0.9-3.2,1.8-4.8,2.8
		c-1.5-8.5-0.9-17.3,0.6-25.8c1.2-8.8,3.5-17.3,6-25.7c1.7-3.5,3.1-7.2,4.7-10.8C92.8,108.6,120.3,83.8,153,73.3z"/>
	<path class="st1" d="M436.8,67.4c33.5-2,67.7,9.6,92.4,32.4c21,18.7,35.2,44.8,40,72.5c1,9.2,1.9,18.4,1.4,27.7
		c-1.7-0.2-3.5-0.3-5.2-0.5c0.4-16.2-2-32.4-7.4-47.8c-3.9-9.3-8.2-18.6-14.1-26.8c-14-20.1-34-36.1-57.1-44.5
		c-15.3-5.9-31.8-8-48.1-7.8C438.1,70.8,437.5,69.1,436.8,67.4z"/>
	<path class="st1" d="M212.6,71c1-0.8,2-1.5,3.1-2.3c1.4,0.4,2.7,0.8,4.1,1.2c-0.6,1.5-1.2,3-1.8,4.6c-1.9,0-3.8,0-5.7,0
		C212.4,73.6,212.5,71.8,212.6,71z"/>
	<path class="st1" d="M416.8,69.5c2.1-0.1,4.3-0.1,6.5-0.2c0.5,1.6,1.1,3.3,1.6,4.9c-1.8,0.2-3.7,0.3-5.5,0.5
		C418.5,73,417.6,71.3,416.8,69.5z"/>
	<path class="st1" d="M400.1,74.8c1.9-0.5,3.7-1.1,5.6-1.6c0.8,1.7,1.6,3.3,2.4,5c-18,5-34.2,15.3-47.7,28
		c-11.4,11-21,24.2-27.2,38.9c-1.9,4.4-3.5,8.9-5.2,13.4c-2.5-2.8-3-6.8-1.9-10.3c12.5-33.3,39.8-60.7,73.3-73L400.1,74.8z"/>
	<path class="st1" d="M230.4,74.1c6.6-0.1,12.5,3.2,18.3,5.9c28.7,13.9,51.3,39.3,62.6,69.1c0.8,2.9-0.8,5.8-1.3,8.6
		c-3-1.9-3.4-5.5-4.6-8.5c-4.6-12.1-11.4-23.3-19.6-33.2c-10.4-11.6-22.2-22.3-36.2-29.3c-2.5-1.2-4.9-2.4-7.3-3.7
		c-4-1.6-8-3.2-12.1-4.5C230.2,77.3,230.3,75.2,230.4,74.1z"/>
	<path class="st1" d="M205.6,84.4c1.1,0,3.3,0.1,4.4,0.1c-0.1,1.6-0.3,3.1-0.5,4.6c-3.9,6.8-6.5,14.3-8.3,22
		c-1.4,5.6-2.4,11.3-3.5,16.9c-0.2,9-0.3,18.1,0,27.1c1.2,5.6,2,11.3,3.5,16.9c2.2,9.7,6.1,19,10.8,27.7c-2.8-1.4-5.9-2.2-8.2-4.5
		c-2.3-3.5-3.2-7.6-4.6-11.5c-0.5-0.8-0.9-1.6-1.4-2.3c-0.5-2.5-1.1-4.9-1.8-7.3c-0.4-1.4-0.8-2.7-1.2-4.1c-0.4-2.7-0.9-5.4-1.6-8.1
		c-1.2-8.9-2.2-18-1.4-27c0.9-5.3,0.3-10.8,1.8-16.1c1.2-5.7,2.6-11.3,4.3-16.9C200.2,96,202.2,89.8,205.6,84.4z"/>
	<path class="st1" d="M426,84.6c1.8-0.1,3.6-0.2,5.4-0.3c14.4,27.7,17.9,60.9,9.2,90.9c-1.9,6.6-3.9,13.2-7.2,19.2
		c-1.3,2.6-4.4,3.3-6.9,4.2c1.9-6.7,5.3-12.9,7.4-19.5c2-7.3,4.2-14.7,4.7-22.3c1.2-8.6,1.8-17.4,0.3-25.9
		c-0.2-10.8-3.1-21.2-6.7-31.3C430.4,94.4,427.5,89.8,426,84.6z"/>
	<path class="st1" d="M446.1,203c17.4-7.1,36.1-11.2,54.9-10.3c9.4-0.2,18.7,2,27.8,4.2c8.6,2.1,16.6,5.8,24.6,9.3
		c0,1.9-0.1,3.9-0.1,5.8c-4.9-1.4-9.3-4.2-14.1-5.9c-18.6-6.9-38.8-9.7-58.5-7.1c-6.5,1.5-13.2,2.5-19.6,4.4c-8,2.2-15.3,6.1-23,9.1
		C440.2,208.8,441.6,204.1,446.1,203z"/>
	<path class="st1" d="M312.7,192.8c5.4-0.6,10.9-0.4,16.3,0.3c12,0.4,23.7,3.7,34.9,7.7c14.5,5.8,28.2,13.8,39.6,24.5
		c5.8,4.4,10.2,10.1,14.6,15.7c10.6,13.2,18.3,28.6,22.6,45c2.5,7.4,3,15.3,4.3,23c1.2,18.8-1.4,37.8-8.1,55.4
		c-8.6,22.8-24,43-43.7,57.3c-15.6,11.6-34.1,19.2-53.2,22.6c-15.1,2.3-30.6,2.1-45.6-0.4c-11.4-2.1-22.3-6.4-32.9-11.1
		c-13.4-6.8-25.6-15.9-35.8-26.9c-9.7-9.7-16.7-21.6-22.9-33.8c-1.4-3.5-2.8-7-3.8-10.7c-0.4-0.8-0.9-1.5-1.3-2.3
		c-2.6-10.6-6-21.1-5.5-32.1c0.1-11-0.9-22.2,1.9-33c5.1-26.9,19.7-51.6,40.2-69.7c16.8-15.1,37.8-25.4,59.9-29.6
		C300.3,193,306.6,193.7,312.7,192.8 M309.6,198.4c-8.4,0.7-16.7,2.2-24.8,4.4c-37.1,10.5-68.4,39.9-80.8,76.5
		c-0.8,2.3-1.5,4.5-2.3,6.8c-0.9,4-2,7.9-2.5,12c-1.8,8.6-0.9,17.4-1.1,26c-0.4,14.4,3,28.7,8.5,42c16.1,39.6,54.7,69,97.3,73.5
		c9.7,0.5,19.4,0.4,29.1,0c43.3-4.5,82.5-35,98.1-75.6c4.1-10.5,7.1-21.5,7.6-32.8c0.8-5.7,1.2-11.4,0.8-17.2
		c-1-8-1.3-16.1-3.3-23.9c-3.2-11.1-7-22.1-13.1-32c-15.2-26.1-40.5-46.3-69.6-54.8C339.4,198.8,324.4,197.8,309.6,198.4z"/>
	<path class="st1" d="M83.4,206.1c13.5-6.3,27.8-11,42.6-12.6c10.4-0.2,20.8-0.4,31.1,0.2c8.1,1.7,16.4,2.9,24.2,5.9
		c3.9,1.5,7.8,3.1,11.8,4.3c1.2,1.3,2.4,2.6,3.6,3.8c0,1.1,0.1,3.3,0.1,4.4c-17.9-9.8-38.4-13.9-58.7-14.2
		c-10.6,0.4-21.1,2.4-31.4,5.2c-8.1,2.2-15.5,5.9-23.2,9.1C83.4,210.1,83.4,208.1,83.4,206.1z"/>
	<path class="st1" d="M295.4,211.1c4.8-0.9,9.6-1.9,14.6-1.9c11.4-0.1,23.1-0.7,34.2,2.6c19.5,4.2,37.3,14.7,51.7,28.3
		c4.4,4.9,9,9.8,12.9,15.1c10.4,14.6,16.9,31.9,19.5,49.6c0.2,7.6,1.4,15.2,1,22.8c-0.8-0.8-1.6-1.7-2.3-2.6c0.6,3.6,1.3,7.3,0.8,11
		c-5.1,36.7-30.7,69.6-64.6,84.3c-18.4,8.5-39,10.4-58.9,8.7c-3.4-0.5-6.7-1.3-10-2c-21.4-4.6-41.3-16.1-56.2-32.1
		c-14.4-15-23.8-34.3-28-54.5c-0.4-2.1-0.5-4.1-0.7-6.2c-1.2-5-0.8-10.2-0.9-15.2c-0.2-8.7,0.4-17.6,3-25.9c0.2-1.3,0.4-2.6,0.5-3.9
		c5-15.1,11.8-29.9,22.6-41.7C250,229,271.9,216.2,295.4,211.1 M324.5,238.8c-0.1,2.5-0.4,5.1,0.7,7.4c0.1,1.5,0.1,3,0.2,4.5
		c-0.5-2.8-1.1-5.6-2-8.4l-1.1,0.3c0.1-0.5,0.3-1.5,0.3-2c-1.6-0.1-3.2-0.1-4.8-0.2c-0.7,0.8-1.5,1.7-2.2,2.5c0,2.5-0.1,4.9-0.1,7.4
		c-1.2,0.5-2.3,1-3.5,1.6c-0.4,0.5-1.1,1.6-1.4,2.1c0,1.4-0.1,2.8-0.1,4.2c2.3,3.2,4.8,6.3,6.6,9.9c0.3,2.8,0.3,5.6,0.3,8.4
		c-0.6,0.7-1.2,1.5-1.8,2.2c0,6,0,12,0,18l1-0.3c-0.1,1.9-0.3,3.8-0.5,5.6c-0.3-1.6-0.5-3.3-0.7-4.9l-1.8,0.5c0-0.6,0-1.7,0-2.2
		l-1.2,0.2l0.2-1.2l-1.2,0.1l0.1-1.2c-3.1-1.1-6.4-0.6-9.5,0.4c-0.1,2.6,1.1,4.8,2.7,6.8c3.7,0,7.6-0.2,10.8,2.1l-0.1,1.2
		c0.5-0.1,1.4-0.2,1.9-0.3c0,7.2,0,14.4-0.1,21.6c-0.6,1.3-1.1,2.5-1.6,3.8c0,2.7,0,5.5-0.8,8.2c-0.5,1.9-0.9,3.9-1.3,5.8
		c1-0.9,1.9-1.8,2.9-2.6c0.8-3.2,1.1-6.5,1.2-9.7l1,0.2c0.1-2.9,0.1-5.7,0.2-8.6c0.4-1.8,0.7-3.7,1-5.5l0.8,0
		c-0.7-3.5-1.1-7-1.8-10.5c0-2.3-0.1-4.7,0-7c0.3-0.9,1.1-2.7,1.4-3.7c-0.4,0.1-1.2,0.2-1.6,0.3c0-4.4-0.1-8.9,0.8-13.2l1.1,0
		c0.1-1.2,0.1-2.3,0.2-3.5c1.4-0.4,2.9-0.8,4.3-1.3l0.6-0.1c0.1-0.7,0.2-2.1,0.2-2.8c1.2,0.8,2.4,1.6,3.5,2.5c1,0.1,2,0.3,2.9,0.4
		c0.9-1.9,1.8-3.8,2.8-5.7c0.7-2.5,1.2-5,1.6-7.6l1,0.1c0-1.9-0.1-3.8-0.2-5.7c-0.9-0.6-1.9-1.1-2.8-1.7c-0.6-3.9-2.6-7.4-2.2-11.4
		c-0.8-1.4-1.6-2.8-2.5-4.1c-0.4-0.1-1.3-0.3-1.8-0.4C327.3,240,326,239.3,324.5,238.8 M270.3,285.6c0,1,0,1.9,0.1,2.9
		c0.8,0,2.3,0,3,0.1c-0.2,10.5,0.2,21-0.2,31.5c-0.4,1.1-0.7,2.3-1,3.5c-0.7,0-2,0.1-2.6,0.1c0,0.5-0.1,1.5-0.1,2
		c3.5,0,7,0.7,10.6,0.7c6.1-0.9,12.3-0.5,18.5-0.5c0.3-1.2,0.6-2.4,0.9-3.6c0.1-2.6,0.1-5.1,0.2-7.7c-0.7,0-2.2,0.1-2.9,0.2
		c-0.1,1.8-0.2,3.5-0.3,5.3c-0.9,0.8-1.7,1.7-2.5,2.5c-0.3,0-1-0.1-1.3-0.2l-0.1,1.1c-4.6,0-9.3,0.1-13.9,0c-0.1-5.7,0-11.4-0.1-17
		c3.4-0.1,6.7,0,10.1,0.2c-0.1,0.5-0.2,1.4-0.2,1.9l1.2,0c0,0.7,0.1,2.2,0.1,2.9c0.5,0,1.3,0.1,1.8,0.1c0.1-4.5,0.2-8.9-0.2-13.4
		c-2.3,0.9-3,3-2.9,5.4c-3,0-6-0.1-8.9,0l0.3-1.1l-1.2,0.3c0-4.1-0.1-8.3,0.4-12.4c0.7-0.9,1.4-1.8,2.1-2.6c2.9-0.1,5.8-0.1,8.6-0.1
		v0.4c1.8,0.9,3.9,1.6,4.9,3.5c1,1.8,1,3.9,1.5,5.9c0.1-0.5,0.3-1.6,0.4-2.1l1.1,0.3c-0.1-3.3-0.5-6.6-1-9.9
		C287.7,285.6,279,285.7,270.3,285.6 M217.7,287.1c1.3,0.2,4,0.6,5.3,0.8c-0.9,0.2-2.7,0.6-3.5,0.8c0.8-0.1,2.4-0.2,3.2-0.3
		c0.4,11.3-0.3,22.6-0.1,33.9c-1,0.5-2,1-3,1.6l-0.1,1.9c3.1,0,6.3,0,9.4,0l-0.1-2.4c-0.8,0-2.4,0.1-3.2,0.1
		c-0.2-3.8-0.5-7.6-0.3-11.4c-0.8-4.6-0.5-9.3-0.5-14c0.4-1.4,0.7-2.9,1-4.3c0.8,1.3,1.6,2.5,2.5,3.7c0,0.3,0.2,0.8,0.2,1.1l0.7,0.1
		c1,1.5,2.1,2.9,3.1,4.3c3.3,4.4,6.4,8.9,9.8,13.2c2.5,3.4,5.1,6.7,7.3,10.3c1.1,0.1,2.2,0.3,3.3,0.4c0.1-12.1,0-24.3,0.1-36.4
		l1.3,0.1c-0.2-0.5-0.5-1.4-0.7-1.9c0.3,0,1,0,1.4,0c0.1-1.1,0.2-2.1,0.4-3.2c-2.9,0-5.7,0.1-8.6,0.1l0,1.8c1.4,0.4,2.8,0.8,4.1,1.3
		c-0.1,9.3,0,18.5-0.1,27.8c-0.4,0-1.1,0.1-1.4,0.1c-7.4-9.9-14.5-20-22.1-29.7c-0.1-0.3-0.2-1-0.3-1.3
		C223.4,285.5,220.2,284.8,217.7,287.1 M333.6,287.1l1.9,0.3l-0.1,1c0.8,0,2.3,0,3,0c0.1,8.8-0.1,17.7,0,26.5c0,2.4-0.2,4.8-0.7,7.1
		c0,0.3-0.1,1-0.2,1.3c-0.8,0-2.2,0.1-3,0.2c0,0.5,0,1.6,0,2.2c0.5-0.1,1.4-0.3,1.8-0.4l0.1,1.2c0.8-0.2,2.5-0.7,3.4-0.9
		c6.5-0.1,13.2,0.5,19.6-1.3l0.1-0.4c4.1-1.5,7.3-4.6,9.5-8.3l0.2-0.3c0.5-1.5,1-3,1.5-4.5c1.5-4.4,0.5-9-0.6-13.3
		c-1.6-4.8-5.5-8.1-10.1-10.1c-7.8-2.8-16.2-2-24.3-1.9C335.3,286,334.2,286.8,333.6,287.1 M396.7,285.4c-1.2,3.9-2.3,7.9-4.2,11.6
		c-0.1,0.6-0.2,1.9-0.2,2.6l-1,0c0,0.3,0.1,1,0.1,1.3c-0.8,2-1.6,4.1-2.3,6.2c-0.7,1.7-1.4,3.3-2.1,5c-0.7,2.1-1.4,4.3-1.9,6.5
		l-0.8,0c0.1,0.4,0.1,1.1,0.2,1.4c-0.3,0.5-1,1.6-1.3,2.1c-1.3,1.1-2.6,2.2-3.8,3.3c3.4,0.3,6.9,0.3,10.4,0.3c0-0.6,0-1.9,0-2.5
		c-0.7,0-1.9,0.1-2.6,0.2c0.1-2.3,0.8-4.5,1.7-6.6c0.3-1.1,0.5-2.3,0.7-3.4c4.9-0.1,9.8,0,14.7,0c1.5,3,4.3,8.5,0.2,10.6l-0.2,1.7
		c4.1-0.1,8.1-0.1,12.2-0.1l0-2.2c-0.9,0-2.7-0.1-3.7-0.2c-0.4-7.4-4.8-13.8-6.8-20.8l-0.2-0.1c-0.9-2.5-1.9-5-3.1-7.4
		c-0.1-0.5-0.4-1.5-0.5-2.1c-0.7-1.7-1.3-3.3-1.9-5c-0.3-0.7-0.9-2-1.2-2.7C398.5,285.3,397.4,285.4,396.7,285.4 M320.6,292.6
		c-0.1,1.4-0.3,2.7-0.5,4.1c2.2-0.2,4.4-0.3,6.7-0.3c0.8-0.7,1.7-1.4,2.4-2.2c0.3-1.3-0.4-2.5-0.7-3.8
		C325.7,290.3,322.9,290.8,320.6,292.6 M227.2,343.5c-1.9,1.7-1.9,4.1-1.8,6.4c2.6,1.4,5.3,2.8,8,4c0.1,1.6,0.1,3.1,0.2,4.7
		c-2,0-4,0-5.9,0c-0.6-1.6-1.3-3.3-1.9-4.9c-0.2,1.9-0.4,3.8-0.6,5.7c1.6,0,3.3,0.1,4.9,0.1c1.5-0.1,3.1-0.1,4.6-0.2
		c0.4-2.1,0.6-4.3,0.9-6.5c-2.6-1.4-5.2-2.7-7.9-3.9c-0.1-1.5-0.2-3-0.3-4.5c1.6,0,3.3,0,4.9,0c0.8,1.4,1.5,2.9,2.3,4.3
		c0.1-1.8,0.1-3.5,0.2-5.2C232.2,343.6,229.7,343.6,227.2,343.5 M242.4,343.4c0.2,5.7,0.2,11.4,0,17.2c1,0,2.1,0,3.1,0
		c-0.1-2.8-0.2-5.5-0.3-8.3c2.5,0,5,0,7.5,0c-0.1,2.8-0.1,5.5-0.2,8.2c1.3,0,2.6-0.1,4-0.1c-1.9-5.4-0.7-11.4-0.9-17
		c-1,0-2.1,0-3.1,0c0.1,2.4,0.2,4.8,0.3,7.2c-2.5,0-5,0-7.4,0c0-2.4,0.1-4.8,0.2-7.2C244.4,343.4,243.4,343.4,242.4,343.4
		 M262.5,347.4c-0.1,4.3-0.5,9,2.9,12.2c1-0.1,2-0.1,3-0.2c0.7,0.3,2.2,1,3,1.3c0-0.4,0.1-1.2,0.1-1.5c0.7,0.1,2,0.2,2.7,0.2
		c1.2-1.4,2.4-2.8,3.6-4.2c0-1.8,0.1-3.6,0-5.4c0.2-2.9-2.6-4.5-4.3-6.4C269.3,343.2,265.1,344.1,262.5,347.4 M284.4,343.4
		c0.4,5.3,0.3,10.7,0.2,16c-0.3,0.2-1,0.7-1.4,1c1.9,0,3.9-0.1,5.9-0.1c-0.9-0.6-1.8-1.2-2.6-1.9c0-0.9,0-2.8,0-3.8
		c2.8-0.5,5.5-1.5,8.1-2.6c0-2.4,0-4.8,0-7.2c-0.6-0.3-1.7-0.9-2.3-1.3C289.7,343.6,287,343.5,284.4,343.4 M343.8,342.3
		c-0.7,4.1-0.1,8.4-0.7,12.5c-0.6,0.3-1.7,0.9-2.3,1.2c0-0.8-0.2-2.3-0.2-3.1c-2.3-2.7-4.3-5.5-6.3-8.4c-0.5-0.1-1.5-0.4-2-0.5
		c0.3,5.5,0.8,11.2-1,16.5c0.6,0,1.7,0.1,2.3,0.1c-0.2-4.3-0.3-8.7,0-13c3.6,4,6.5,8.6,9.8,12.9
		C344.1,354.4,345.4,348.2,343.8,342.3 M352.1,343.5c0.4,0.8,0.9,1.7,1.3,2.5c0.1,4.8,0.3,9.7-1,14.4c3.3-0.1,6.7-0.1,10-0.1
		c0.4-1.6,0.8-3.2,1.2-4.8c-0.5,0-1.4,0-1.8,0c-0.1,1.3-0.1,2.7-0.2,4c-2.3,0-4.6,0.1-7,0.2c0.6-5.4-1.4-11.4,1.5-16.3
		C354.7,343.5,353.4,343.5,352.1,343.5 M369.3,343.3c0.1,5.7,0,11.5,0,17.2c0.6,0,1.7,0,2.3-0.1c-0.2-5.7-0.2-11.4,0-17
		C371,343.4,369.9,343.4,369.3,343.3 M390.1,343.5c0.4,0.9,0.8,1.8,1.2,2.6c0,3.1,0.1,6.3,0.1,9.5c-0.6-0.1-1.7-0.2-2.2-0.3
		c-2.2-3.8-4.8-7.4-7.4-10.8c-0.6-0.1-1.8-0.3-2.4-0.3c0.3,5.5,0.3,11-0.1,16.4c0.6,0,1.7,0,2.2,0c0-0.5,0-1.5,0-2l-1.2-0.1
		c0-3.7,0-7.4,0.1-11.1c4,3.3,6.7,7.8,9.6,12c0.7,0,1.5,0.1,2.2,0.1c0-5.4,0-10.7,0.1-16.1C391.8,343.5,390.6,343.5,390.1,343.5
		 M398.6,343.8c0.5,0.2,1.5,0.6,2,0.8c0.1,4.9,0.1,9.9,0,14.8c-0.4,0.2-1.4,0.6-1.8,0.9c4,0.1,7.9,0.1,11.9,0.2
		c-0.1-1.7-0.2-3.4-0.4-5c-0.4,1.4-0.7,2.8-1.1,4.2c-2.3,0-4.6,0.1-6.8,0.2c0-2.8,0-5.6,0-8.5c1,0.1,2.9,0.2,3.9,0.2l0.7,2.2
		c0.2-1.6,0.4-3.2,0.6-4.8c-1.4,1.4-3.3,1.9-5.2,2.4c0-2.3,0-4.5,0-6.8c1.6,0,3.2,0,4.8,0c1,0.9,2,1.8,3,2.6c0-1.2,0.1-2.3,0.1-3.5
		C406.5,343.6,402.6,343.6,398.6,343.8 M309.2,354.2c1.3,1.9,2.7,3.7,4.1,5.5c2.1-0.2,4.2-0.4,6.2-0.7l-1.6-0.1
		c1.7-0.2,3.4-0.3,5.1-0.5c0.9-2.1,2.1-4.1,2.5-6.4c-0.1-2.6-1.7-4.9-2.6-7.3c-3.1-0.1-6.2-0.2-9.1-1.2
		C310.6,346.1,308.8,350,309.2,354.2z"/>
	<path class="st1" d="M67.5,216.5c1.5-1.8,3.4-3.1,5.7-3.6c0.2,1.8,0.3,3.7,0.4,5.5c-1.6,0.9-3.2,1.8-4.8,2.7
		C68.4,219.6,67.9,218,67.5,216.5z"/>
	<path class="st1" d="M49,232c2.5-2.6,5-5.4,8.6-6.5c0.1,1.9,0.1,3.9,0.2,5.8c-11.3,10.2-19.9,22.9-26.9,36.4
		C25,281.4,20.1,296,20.1,311c-1.3,13.7-0.1,27.7,3.7,40.9c6.1,21.2,17.7,40.8,33.9,55.8c0,1.9-0.1,3.8-0.2,5.8
		c-3.8-1.2-6.3-4.4-9-7c-10.5-10.8-18.7-23.6-24.6-37.4c-1.7-4.7-3.7-9.3-5.1-14c-3.8-13.3-4.9-27.2-4.4-41
		C14.6,283.5,28.1,253.9,49,232z"/>
	<path class="st1" d="M579.4,225.5c7.3,2.6,11,9.9,16.2,15.1c15.3,19.2,24.9,42.9,27.1,67.4c0.2,6.7,0,13.3,0,20
		c0,8.1-1.8,16.1-3.6,23.9c-5.3,18.1-13.9,35.5-26.4,49.7c-3.9,4.5-7.6,9.7-13.3,12c-0.1-2-0.2-3.9-0.2-5.9
		c18-16.9,31.1-39.5,35.6-63.9c4.3-17.6,3.2-36.1-0.8-53.6c-1.2-2.9-1.8-6-2.7-9.1c-6.3-18.9-17.5-36.2-32-49.9
		C579.3,229.4,579.3,227.4,579.4,225.5z"/>
	<path class="st1" d="M73.2,231.3c1.6,0,3.3,0,4.9,0c0.3,1.6,0.6,3.1,0.9,4.7c3.3,8.1,7.1,16,11.7,23.5c12.5,18.9,30,34.5,50.5,44.2
		c5.5,2.7,11.6,4.2,17,7.3c-3.7,0.5-7.6,2.9-11.3,1.1c-0.5-0.2-1.4-0.6-1.9-0.8c-13.8-5.9-26.8-13.8-37.8-24
		c-6.4-5-11.3-11.5-16.3-17.8c-6.5-8.2-11.1-17.8-15.5-27.2C73.6,238.8,73,235,73.2,231.3z"/>
	<path class="st1" d="M559.6,231.2c1.1,0.1,3.2,0.2,4.3,0.3c-0.1,3.2-0.6,6.4-2,9.4c-5.1,12.7-12.3,24.6-21,35.1
		c-7.2,7.5-14.4,15.2-23.1,21c-6.5,4.8-13.6,8.8-20.9,12.1c-3,1-5.8,2.7-8.9,3.5c-2.9,0.1-5.6-0.9-8.4-1.4l0-1.4
		c0.6-0.1,1.8-0.3,2.4-0.4c17.3-6.2,33.7-15.5,46.5-28.7C543,267.2,553.3,249.8,559.6,231.2z"/>
	<path class="st1" d="M344.8,288.3c0.4,0.1,1.2,0.3,1.6,0.3l0.1-1.1c0.9,0,2.7,0.1,3.6,0.2c1.6,0.6,3.2,1.1,4.8,1.7
		c0.6,0.1,1.7,0.1,2.3,0.2c2.9,2.3,5.6,4.9,7.4,8.2c0,0.3,0.1,0.9,0.1,1.2c0.8,3.6,0.7,7.3,0.6,10.9c-0.4,1.2-0.7,2.3-1,3.5
		l-0.3,0.2c-1.9,3.8-4.9,7.3-9,8.7c-3.3,1.4-7,1-10.6,1.1l0.2-1.2l-1.1,0.3c0.2-10.2-0.1-20.4,0.1-30.6
		C344.1,290.8,344.5,289.5,344.8,288.3z"/>
	<path class="st1" d="M395.9,295.4c0.8,0.1,1.6,0.1,2.3,0.2c0.5,2,1,3.9,1.5,5.9l0.5,0c0.5,1.5,1,3.1,1.5,4.6c0.4,1.5,0.7,3,1.1,4.6
		c-3.9,0.1-7.9,0.1-11.8-0.1c0.4-1.2,0.9-2.3,1.4-3.5c0-0.7,0.1-2,0.1-2.7l0.8,0.1C394.2,301.4,395.2,298.4,395.9,295.4z"/>
	<path class="st1" d="M100.2,358.3c13.4-13.8,29.6-24.9,47.7-31.5c3.4-1.1,6.7,0.8,9.7,2.1c-16.4,5.8-32.4,13.6-45.2,25.6
		C98.8,366.3,88,381.3,81,397.9c-1.3,3.3-2.5,6.6-3.5,10c-1.1-0.1-3.3-0.2-4.4-0.3c0.2-2.6,0.1-5.2,1.1-7.7
		C80,384.5,89.1,370.4,100.2,358.3z"/>
	<path class="st1" d="M481.7,329.9c0.3-4.1,4.3-3.4,7.3-3.5c11.1,4.9,22,10.3,31.7,17.7c17,13.1,31.2,30.1,39.6,50
		c1.6,3.9,3.8,7.8,4.3,12.1c-1,1.7-3,2.1-4.7,2.8c-0.3-0.8-0.7-2.3-1-3.1c-6-17.5-15.9-33.8-29.3-46.5
		C516.5,345.6,499.6,335.8,481.7,329.9z"/>
	<path class="st1" d="M286.5,344.5c2,0,4.1,0,6.1,0c0,0.3-0.1,1-0.1,1.3c0.4,1.3,0.7,2.5,1,3.8c-1,1.2-1.9,2.5-2.9,3.7
		c-0.8,0.1-2.4,0.3-3.2,0.3C286.6,350.7,286.5,347.6,286.5,344.5z"/>
	<path class="st1" d="M312.9,345.4c2.8-0.1,5.6-0.1,8.4-0.1c1,3.5,2,7.3,1,10.9c-1.2,1.3-2.8,1.9-4.3,2.6c-1.3-0.1-2.5-0.2-3.8-0.3
		c-0.9-1.8-2-3.5-2.5-5.5C311.4,350.5,312.3,347.9,312.9,345.4z"/>
	<path class="st1" d="M265.4,345.4c2.6-0.1,5.3-0.1,8-0.1c2.9,4.2,2.8,9.3,0,13.4c-2.1-0.1-4.2-0.1-6.3-0.2
		c-0.9-1.2-1.8-2.3-2.6-3.5C264.2,351.8,264.5,348.5,265.4,345.4z"/>
	<path class="st1" d="M68.9,418c1.6,0.8,3.2,1.6,4.7,2.5c-0.1,1.9-0.3,3.7-0.4,5.6c-2.3-0.4-4.1-1.8-5.6-3.4
		C68,421.1,68.4,419.5,68.9,418z"/>
	<path class="st1" d="M563.4,419.7c1.7-0.6,3.4-1.1,5.1-1.7c0,2,0.1,3.9-0.2,5.9c-1.4,1.1-3.1,1.6-4.7,2.2
		C563.5,424,563.4,421.9,563.4,419.7z"/>
	<path class="st1" d="M83.5,427c8.9,4,17.9,7.9,27.4,10.2c22.8,5.5,47.3,4.8,69.5-3c5.7-1.9,11.1-4.9,16.9-6.5
		c-0.9,2.7-1.6,6.2-4.7,7.4c-12.2,5.4-25.3,9.3-38.6,10.5c-15.4,0.6-31,1-46-3.3c-8.5-2.3-16.4-6-24.7-9
		C83.4,431.1,83.4,429.1,83.5,427z"/>
	<path class="st1" d="M539.3,432.9c4.8-1.8,9.2-4.3,14-5.8c0.1,2,0.1,3.9,0.2,5.9c-15,6.8-31,12.2-47.6,12.8
		c-11.4,0-23,0.6-34.2-1.9c-9.7-1.9-19.2-5.1-28.1-9.2c-2.7-1.2-3.1-4.5-4-7c3,0.7,5.9,1.7,8.6,3.2c7,3.6,14.6,5.3,22.2,7.2
		C493.2,442.9,517.5,441.5,539.3,432.9z"/>
	<path class="st1" d="M65.8,437.6c1.9,0.8,3.7,1.5,5.6,2.2c0.1,5.7-0.5,11.5,0.8,17.2c0.8,8.1,2.1,16.1,4.6,23.9
		c1.5,4.5,2.9,9,4.9,13.3c13.9,32.3,42.7,57.7,76.5,67.4c8.1,2.3,16.3,4.4,24.8,4.3c5.4-0.1,10.7,0.3,16,1.1c0.3,1.8,0.6,3.7,1,5.5
		c-25,0.6-50.5-5-72.1-18c-33.3-19.3-56.7-55-60.8-93.3C65.6,453.3,65.6,445.4,65.8,437.6z"/>
	<path class="st1" d="M565.4,439.6c1.8-0.2,3.5-0.4,5.3-0.5c0.1,12.7-0.3,25.6-3.8,37.9c-1.5,6.1-3.5,12-5.8,17.9
		c-0.4,0.4-1.1,1.3-1.5,1.7c0,0.6-0.2,1.8-0.2,2.4c-5.1,9.7-10.7,19.3-17.8,27.6c-16.1,19.5-38.3,33.9-62.7,40.6
		c-13.5,4.3-27.8,5-41.9,4.4c0.6-1.7,1.2-3.4,1.8-5.1c25.5,0.8,51.3-6,72.5-20.2c24.3-16,42.4-41.1,49.8-69.2
		C564.5,464.9,565.5,452.2,565.4,439.6z"/>
	<path class="st1" d="M203,443.8c2.3-1.1,4.5-2.3,6.8-3.3c-0.1,1.1-0.4,3.3-0.5,4.4c-6.6,12-9.5,25.6-11.8,39
		c-0.2,9.1-0.2,18.1,0.1,27.2c1,5.6,2.2,11.2,3.5,16.8c2,9.3,6.3,17.8,9.8,26.5c-2,0.1-4,0.1-5.9,0.2c-2.1-4.9-4.4-9.8-6-14.9
		c-3.1-7.6-4.5-15.7-6.2-23.7c-0.8-11.7-0.6-23.5-0.2-35.2c1.4-7,2.5-14.2,4.7-21C198.7,454.4,201.7,449.4,203,443.8z"/>
	<path class="st1" d="M426.7,440.5c2.4,1,5.6,1.5,6.8,4.2c4.8,9.4,7.6,19.7,9.6,30c2.1,9.6,1.6,19.5,1.7,29.3
		c-0.1,11-2.4,21.9-5.7,32.4c-2,6.2-4.9,12-7,18.1c-1.7,0-3.4,0.1-5.1,0.1c0.4-5.5,3.5-10,5.2-15.1c2.5-7,4.4-14.1,5.9-21.4
		c1.1-11.2,2.8-22.5,0.7-33.6c-0.4-9.2-2.8-18.2-5.8-26.9C431.1,451.9,427.9,446.6,426.7,440.5z"/>
	<path class="st1" d="M372.8,445.9c2.5-0.5,4.7-2.2,7.2-2.4l0.1,0.5c-2.8,3.2-7.1,4.2-11,4.9l-1.8-0.2
		C369.1,447.7,370.9,446.8,372.8,445.9z"/>
	<path class="st1" d="M305.8,489c0.9-2.6,1.3-5.9,4.5-6.8c0.5,2.5,1.9,5.1,1,7.7c-13.5,35.7-43.6,65.5-80.6,75.9
		c-0.6-1.6-1.1-3.3-1.7-4.9C263.9,550.5,292.7,522.8,305.8,489z"/>
	<path class="st1" d="M325.7,485c0.5-1.2,1.6-3.7,2.1-5c5.4,16.5,13.4,32.3,25.2,45.1c14.4,16.9,33.8,29.4,55,35.9
		c-0.8,1.7-1.6,3.3-2.4,5c-30.7-9.4-57.3-31.3-72.3-59.6c-1.2-2.1-2.3-4.3-3.5-6.4C328,495.1,324.5,490.4,325.7,485z"/>
	<path class="st1" d="M212.3,564.3c2.2,0.5,5.6-0.8,6.7,1.9c0.3,0.8,0.9,2.5,1.1,3.3c-2.4,0-4.8,0-7.2,0
		C212.6,567.8,212.4,566,212.3,564.3z"/>
	<path class="st1" d="M418.8,564.5c2,0,4.1,0,6.1,0.1c-0.5,1.7-1,3.4-1.6,5.1c-2.1,0-4.2-0.1-6.3-0.2
		C417.6,567.8,418.2,566.1,418.8,564.5z"/>
	<path class="st1" d="M224.6,580.5c1.9-0.1,3.8-0.1,5.6-0.2c13.9,15.3,32.2,26.2,51.7,32.9c12.4,3.3,25.2,6.3,38.1,5
		c7.3-0.9,14.8,0.1,22-1.9c19.9-4,38.8-13.1,54.3-26.2c3.7-2.9,7-6.2,10-9.8c2,0,4-0.1,6.1,0c-0.7,1.8-1.4,3.8-2.8,5.1
		c-7.4,7.7-16,14.4-25,20.1c-4.5,2.5-9.1,4.7-13.5,7.4c-12.5,5-25.5,9.1-38.9,10.5c-9.1,0.2-18.2,0.3-27.2-0.1
		c-25.6-2.8-50.5-13.5-69.7-30.7C231.2,589,226.4,585.8,224.6,580.5z"/>
</g>
<g id="_x23_f20b12ff">
	<path class="st2" d="M324.5,238.8c1.5,0.5,2.8,1.2,3.7,2.4c0.4,0.1,1.3,0.3,1.8,0.4c0.8,1.4,1.6,2.8,2.5,4.1
		c-0.5,4,1.5,7.6,2.2,11.4c0.9,0.5,1.8,1.1,2.8,1.7c0.1,1.9,0.1,3.8,0.2,5.7l-1-0.1c-0.4,2.6-0.9,5.1-1.6,7.6
		c-0.9,1.9-1.9,3.8-2.8,5.7c-1-0.1-2-0.3-2.9-0.4c-1.2-0.8-2.3-1.6-3.5-2.5c-0.1,0.7-0.2,2.1-0.2,2.8l-0.6,0.1
		c-1.4,0.5-2.9,0.9-4.3,1.3c-0.1,1.2-0.1,2.3-0.2,3.5l-1.1,0c-0.9,4.4-0.8,8.8-0.8,13.2c0.4-0.1,1.2-0.2,1.6-0.3
		c-0.3,0.9-1.1,2.7-1.4,3.7c0,2.3,0,4.7,0,7c0.8,3.5,1.2,7,1.8,10.5l-0.8,0c-0.3,1.9-0.6,3.7-1,5.5c-0.1,2.9-0.2,5.7-0.2,8.6l-1-0.2
		c-0.1,3.3-0.4,6.6-1.2,9.7c-1,0.9-1.9,1.8-2.9,2.6c0.4-1.9,0.9-3.9,1.3-5.8c0.8-2.7,0.8-5.4,0.8-8.2c0.5-1.3,1.1-2.5,1.6-3.8
		c0.1-7.2,0.1-14.4,0.1-21.6c-0.5,0.1-1.4,0.2-1.9,0.3l0.1-1.2c-3.2-2.3-7.1-2.1-10.8-2.1c-1.6-2-2.8-4.2-2.7-6.8
		c3.1-1,6.3-1.5,9.5-0.4l-0.1,1.2l1.2-0.1l-0.2,1.2l1.2-0.2c0,0.6,0,1.7,0,2.2l1.8-0.5c0.2,1.6,0.4,3.3,0.7,4.9
		c0.2-1.9,0.3-3.8,0.5-5.6l-1,0.3c0-6,0-12,0-18c0.6-0.8,1.2-1.5,1.8-2.2c0-2.8-0.1-5.6-0.3-8.4c-1.8-3.6-4.3-6.6-6.6-9.9
		c0-1.4,0.1-2.8,0.1-4.2c0.4-0.5,1.1-1.6,1.4-2.1c1.2-0.5,2.3-1.1,3.5-1.6c0-2.5,0.1-4.9,0.1-7.4c0.7-0.8,1.5-1.6,2.2-2.5
		c1.6,0.1,3.2,0.1,4.8,0.2c-0.1,0.5-0.3,1.5-0.3,2l1.1-0.3c0.9,2.7,1.5,5.5,2,8.4c0-1.5-0.1-3-0.2-4.5
		C324.1,243.9,324.5,241.3,324.5,238.8z"/>
	<path class="st2" d="M270.3,285.6c8.7,0.1,17.4,0.1,26.1,0c0.5,3.3,1,6.6,1,9.9l-1.1-0.3c-0.1,0.5-0.3,1.6-0.4,2.1
		c-0.5-2-0.5-4.1-1.5-5.9c-1-1.9-3.1-2.6-4.9-3.5v-0.4c-2.9,0-5.8,0-8.6,0.1c-0.7,0.9-1.4,1.8-2.1,2.6c-0.4,4.1-0.3,8.2-0.4,12.4
		l1.2-0.3l-0.3,1.1c3,0,6,0,8.9,0c0-2.4,0.6-4.5,2.9-5.4c0.4,4.5,0.3,8.9,0.2,13.4c-0.5,0-1.3-0.1-1.8-0.1c0-0.7-0.1-2.2-0.1-2.9
		l-1.2,0c0.1-0.5,0.2-1.4,0.2-1.9c-3.4-0.2-6.7-0.2-10.1-0.2c0.1,5.7-0.1,11.4,0.1,17c4.6,0,9.3,0,13.9,0l0.1-1.1
		c0.3,0,1,0.1,1.3,0.2c0.8-0.9,1.7-1.7,2.5-2.5c0.1-1.8,0.2-3.5,0.3-5.3c0.7,0,2.2-0.1,2.9-0.2c0,2.6-0.1,5.1-0.2,7.7
		c-0.3,1.2-0.6,2.4-0.9,3.6c-6.1,0-12.3-0.4-18.5,0.5c-3.5,0.1-7-0.7-10.6-0.7c0-0.5,0.1-1.5,0.1-2c0.7,0,2,0,2.6-0.1
		c0.3-1.2,0.7-2.3,1-3.5c0.3-10.5-0.1-21,0.2-31.5c-0.8,0-2.3,0-3-0.1C270.3,287.5,270.3,286.5,270.3,285.6z"/>
	<path class="st2" d="M217.7,287.1c2.4-2.2,5.7-1.5,8.7-1.6c0.1,0.3,0.3,1,0.3,1.3c7.6,9.7,14.8,19.8,22.1,29.7
		c0.4,0,1.1-0.1,1.4-0.1c0.1-9.3,0-18.5,0.1-27.8c-1.4-0.4-2.7-0.9-4.1-1.3l0-1.8c2.8,0,5.7,0,8.6-0.1c-0.1,1.1-0.2,2.1-0.4,3.2
		c-0.3,0-1,0-1.4,0c0.2,0.5,0.5,1.4,0.7,1.9l-1.3-0.1c-0.1,12.1,0,24.3-0.1,36.4c-1.1-0.1-2.2-0.3-3.3-0.4
		c-2.2-3.6-4.8-6.9-7.3-10.3c-3.4-4.3-6.5-8.8-9.8-13.2c-1-1.4-2.1-2.9-3.1-4.3l-0.7-0.1c-0.1-0.3-0.2-0.8-0.2-1.1
		c-0.9-1.2-1.7-2.4-2.5-3.7c-0.3,1.5-0.6,2.9-1,4.3c0,4.7-0.4,9.4,0.5,14c-0.2,3.8,0.1,7.6,0.3,11.4c0.8,0,2.4-0.1,3.2-0.1l0.1,2.4
		c-3.1,0-6.3,0-9.4,0l0.1-1.9c1-0.5,2-1,3-1.6c-0.1-11.3,0.5-22.6,0.1-33.9c-0.8,0.1-2.4,0.2-3.2,0.3c0.9-0.2,2.7-0.6,3.5-0.8
		C221.7,287.6,219,287.3,217.7,287.1z"/>
	<path class="st2" d="M333.6,287.1c0.6-0.4,1.7-1.1,2.3-1.5c8.1-0.1,16.5-0.9,24.3,1.9c4.5,2,8.4,5.3,10.1,10.1
		c1.1,4.3,2.1,8.9,0.6,13.3c-0.5,1.5-1,3-1.5,4.5l-0.2,0.3c-2.2,3.7-5.4,6.8-9.5,8.3l-0.1,0.4c-6.4,1.7-13.1,1.2-19.6,1.3
		c-0.8,0.2-2.5,0.7-3.4,0.9l-0.1-1.2c-0.5,0.1-1.4,0.3-1.8,0.4c0-0.5,0-1.6,0-2.2c0.7,0,2.2-0.1,3-0.2c0-0.3,0.1-1,0.2-1.3
		c0.6-2.3,0.8-4.7,0.7-7.1c-0.1-8.8,0.1-17.7,0-26.5c-0.8,0-2.3,0-3,0l0.1-1L333.6,287.1 M344.8,288.3c-0.4,1.2-0.8,2.5-1.2,3.7
		c-0.2,10.2,0.1,20.4-0.1,30.6l1.1-0.3l-0.2,1.2c3.5-0.1,7.2,0.4,10.6-1.1c4.1-1.4,7.1-4.9,9-8.7l0.3-0.2c0.3-1.2,0.7-2.3,1-3.5
		c0.2-3.6,0.2-7.3-0.6-10.9c0-0.3-0.1-0.9-0.1-1.2c-1.8-3.3-4.5-6-7.4-8.2c-0.6,0-1.7-0.1-2.3-0.2c-1.6-0.6-3.2-1.1-4.8-1.7
		c-0.9,0-2.7-0.1-3.6-0.2l-0.1,1.1C346,288.5,345.2,288.4,344.8,288.3z"/>
	<path class="st2" d="M396.7,285.4c0.6,0,1.8-0.1,2.4-0.1c0.3,0.7,0.9,2,1.2,2.7c0.6,1.7,1.3,3.3,1.9,5c0.1,0.5,0.4,1.6,0.5,2.1
		c1.2,2.4,2.2,4.9,3.1,7.4l0.2,0.1c2,7,6.4,13.4,6.8,20.8c0.9,0,2.8,0.1,3.7,0.2l0,2.2c-4.1,0-8.2,0-12.2,0.1l0.2-1.7
		c4.1-2.1,1.3-7.5-0.2-10.6c-4.9,0-9.8-0.1-14.7,0c-0.2,1.1-0.5,2.3-0.7,3.4c-1,2.1-1.6,4.3-1.7,6.6c0.6,0,1.9-0.1,2.6-0.2
		c0,0.6,0,1.9,0,2.5c-3.5-0.1-6.9-0.1-10.4-0.3c1.2-1.1,2.5-2.2,3.8-3.3c0.3-0.5,1-1.6,1.3-2.1c-0.1-0.3-0.1-1.1-0.2-1.4l0.8,0
		c0.6-2.2,1.2-4.3,1.9-6.5c0.7-1.7,1.4-3.3,2.1-5c0.7-2.1,1.5-4.2,2.3-6.2c0-0.3-0.1-1-0.1-1.3l1,0c0-0.6,0.2-1.9,0.2-2.6
		C394.5,293.4,395.6,289.4,396.7,285.4 M395.9,295.4c-0.7,3.1-1.8,6.1-2.6,9.1l-0.8-0.1c0,0.7-0.1,2-0.1,2.7
		c-0.5,1.2-0.9,2.3-1.4,3.5c3.9,0.2,7.9,0.1,11.8,0.1c-0.3-1.5-0.7-3.1-1.1-4.6c-0.5-1.5-1-3.1-1.5-4.6l-0.5,0c-0.5-2-1-3.9-1.5-5.9
		C397.5,295.5,396.7,295.4,395.9,295.4z"/>
	<path class="st2" d="M320.6,292.6c2.3-1.8,5.1-2.3,7.9-2.2c0.3,1.2,1,2.5,0.7,3.8c-0.8,0.8-1.6,1.5-2.4,2.2c-2.2,0-4.5,0.1-6.7,0.3
		C320.3,295.3,320.4,293.9,320.6,292.6z"/>
</g>
</svg>
